<svg xmlns="http://www.w3.org/2000/svg" viewBox="0 0 500 500"><g id="freepik--Neurons--inject-106"><g id="freepik--Cells--inject-106"><g id="freepik--Cell--inject-106"><path d="M101.5,43.84c-.52,1.06-1.92.95-2.71,1.7a6.78,6.78,0,0,0,0-3.71c.38-.08,0-.69.21-1,.15-.87,1.06-2.09.44-2.86a15.19,15.19,0,0,0-.88,3.2,5.76,5.76,0,0,1-.72-3.81c0-.17-.17-.3-.2-.08-.48,3.9,2.14,5.86-.58,10-.23-1.62-1.39-2.89-2.46-4.08.52-1.34,1.34-2.73.67-4.21-.06-.16-.17,0-.14.13.57,1.38-.41,2.5-.88,3.69A4.52,4.52,0,0,1,93,39.9c0-.18-.23-.25-.25,0,0,4,5.77,6.27,2,10.36-5.36,5.48,1.18,11.28,1.09,17.28C95,70.44,93.13,73,91.25,75.36c-1.25,1.55-6,2.8-9.5,3.4.61-.11-7.64-9.16-7.89-9.62,2-2.62,4.19-3.87.83-6.73,1.83.53,3.3-1,4.25-2.39.11-.15-.06-.7-.26-.51-1.41,1.52-3.4,2.38-5.33,1.36,0-2,1.94-3.48,1.89-5.54,0-.18-.22-.25-.23,0-.26,2-2.92,3-2.65,5.27-2.75-1.28-.34-4.28-.18-6.37-.32-1.62-2,4.22-2,4.71.1,2.85,4.68,3.26,4.9,6.07-.75,1.27-2.22,2.07-2.79,3.51-.43.07-12,2.11-12.14,2.43-1.92-3.32-7.17-4.36-7.48-8.48,0-.25-.31-.52-.4-.16-1,3.4,2.9,4.92,4.78,7-2.09-.42-3.36.56-4.85-1.52-2-1.13-4.64-.31-6.42-2.15-.15.89,1.46,1.81,2.32,2.21,1.16.55,2.59.13,3.68.81.91.65,1.34,1.71,2.6,1.79,1.84-.16,4.1-.34,4.88,1.76L55.74,82.34a7.31,7.31,0,0,0-5,2.5c-1.93.38-3.89-1.46-5.76-.27-.08.05-.09.32,0,.29,1.8-.5,3.25.83,4.94,1.09-1.42,3.43-3.45,5.06-6.59,5.77,6.47,1.14,6.54-7.46,12.17-8.06-.48.12,7.61,9.12,7.75,9.37-1.56,1.59-2.71,3.78-2.1,6-.28.63-1,.76-1.53,1.15a5,5,0,0,0-.89,4.2c.09.23.28,0,.23-.19-.42-2,1.25-3.12,2.83-3.78,1.75,2.11,3.61,4.66,2.1,7.45,0,.11.05.52.2.33,3.9-6.17-4.89-8.22.48-14.31,1-.09,12.16-1.87,12.82-2.67,1.91,6.25,10.07,3.15,9.6,9.31,0,.16.2.38.25.14a5,5,0,0,0-2.64-5.33c1.74-.31,4.12-1,5.22.89.17.3.34-.1.25-.3-1.44-2.59-5.23-2.09-7.63-1.43-2.37-.69-3.46-3-4.2-5.1l3-8.67a59.42,59.42,0,0,0,10.19-2.58c1.5-.86,1.24-.87,3.26-4.32s3.61-6.66,1.88-10.3c-3-6-4.1-8.81.66-14.37a9.28,9.28,0,0,1,3.12-3.73C100.75,45,101.87,44.21,101.5,43.84Z" style="fill:#ebebeb"></path><path d="M75,80.52A6.34,6.34,0,1,1,68,74.86,6.35,6.35,0,0,1,75,80.52Z" style="fill:#fafafa"></path></g><g id="freepik--cell--inject-106"><path d="M452.14,373.76c-.31,1.14-1.72,1.28-2.35,2.16a6.78,6.78,0,0,0-.62-3.66c.36-.15-.08-.69,0-1,0-.88.67-2.25-.07-2.9a15.45,15.45,0,0,0-.3,3.31,5.68,5.68,0,0,1-1.38-3.62c0-.17-.23-.27-.22-.05.23,3.93,3.15,5.39,1.21,9.92a8.16,8.16,0,0,0-3.15-3.57c.27-1.42.84-2.93-.09-4.27-.09-.14-.17.06-.11.16.8,1.25,0,2.52-.21,3.78a4.43,4.43,0,0,1-1.81-2.62c0-.19-.28-.21-.25,0,.74,3.9,6.8,5.14,3.77,9.84-4.31,6.36,3.17,10.89,4.14,16.81-.21,3-1.62,5.9-3.05,8.53-1,1.76-5.46,3.84-8.74,5,.58-.21-9.16-7.64-9.48-8.06,1.46-2.93,3.43-4.55-.39-6.77,1.9.19,3.07-1.57,3.76-3.1.08-.17-.18-.68-.35-.46-1.11,1.74-2.92,2.95-5,2.29-.4-2,1.29-3.77.87-5.79,0-.18-.25-.21-.23,0,.11,2-2.34,3.42-1.67,5.66-2.93-.77-1.1-4.15-1.31-6.24-.61-1.53-1.18,4.51-1.1,5,.6,2.78,5.19,2.37,5.91,5.1-.52,1.38-1.82,2.44-2.12,3.95-.42.14-11.43,4.21-11.52,4.55-2.48-2.93-7.84-3-8.87-7,0-.25-.4-.45-.42-.09-.35,3.53,3.72,4.33,6,6-2.14,0-3.21,1.15-5.05-.62-2.19-.77-4.62.52-6.7-1,0,.9,1.76,1.52,2.68,1.75,1.24.34,2.56-.33,3.76.15,1,.48,1.62,1.45,2.88,1.3,1.78-.49,4-1.07,5.12.86L414,419.81a7.28,7.28,0,0,0-4.46,3.33c-1.82.73-4.09-.74-5.71.77-.08.06,0,.33.08.28,1.68-.81,3.34.24,5.05.19-.79,3.63-2.49,5.59-5.45,6.86,6.57,0,5.1-8.51,10.54-10.1-.45.2,9.11,7.61,9.3,7.84-1.26,1.83-2,4.2-1,6.22-.15.67-.87.93-1.29,1.41a4.94,4.94,0,0,0-.13,4.28c.13.22.27-.07.19-.22-.77-1.88.67-3.29,2.11-4.22,2.1,1.76,4.39,3.94,3.39,6.95,0,.11.15.51.26.29,2.74-6.77-6.28-7.21-2.08-14.17,1-.27,11.64-4,12.15-4.91,3,5.81,10.46,1.31,11.1,7.45,0,.17.26.34.27.1a5,5,0,0,0-3.54-4.78c1.65-.61,3.87-1.68,5.29-.05.22.26.32-.16.19-.34-1.88-2.3-5.52-1.13-7.76-.05-2.46-.25-3.94-2.32-5-4.27l1.43-9.07a59.94,59.94,0,0,0,9.57-4.35c1.32-1.12,1.07-1.08,2.43-4.84s2.37-7.2,0-10.47c-4-5.41-5.6-7.94-1.91-14.25a9.27,9.27,0,0,1,2.4-4.23C451.62,375,452.57,374.06,452.14,373.76Z" style="fill:#ebebeb"></path><path d="M432.56,414.59a6.34,6.34,0,1,1-7.84-4.34A6.34,6.34,0,0,1,432.56,414.59Z" style="fill:#fafafa"></path></g><g id="freepik--cell--inject-106"><path d="M399.13,52.06c1.29.34,1.47,1.92,2.47,2.62a7.61,7.61,0,0,0-4.11.77c-.17-.4-.78.09-1.12,0-1,0-2.55-.72-3.26.13a16.82,16.82,0,0,0,3.73.27,6.43,6.43,0,0,1-4.06,1.63c-.18,0-.29.26,0,.24,4.42-.32,6-3.64,11.15-1.53-1.74.6-2.89,2.16-4,3.61-1.6-.28-3.31-.89-4.8.17-.16.11.06.19.17.13,1.4-.93,2.85-.1,4.27.16a5,5,0,0,1-2.92,2.09c-.21,0-.23.31,0,.28,4.39-.91,5.67-7.75,11-4.42,7.23,4.74,12.21-3.76,18.86-5,3.4.19,6.67,1.72,9.67,3.29,2,1.05,4.41,6.08,5.83,9.76-.25-.66-8.45,10.44-8.91,10.82-3.33-1.59-5.19-3.78-7.63.55.19-2.14-1.82-3.42-3.56-4.17-.19-.09-.76.21-.51.4,2,1.22,3.37,3.23,2.67,5.6-2.19.48-4.27-1.4-6.54-.89-.2,0-.22.3,0,.26,2.29-.15,3.9,2.58,6.4,1.78-.81,3.32-4.65,1.31-7,1.59-1.72.71,5.1,1.25,5.64,1.15,3.12-.73,2.58-5.88,5.64-6.74,1.56.55,2.78,2,4.49,2.31.16.47,4.95,12.8,5.33,12.9-3.25,2.84-3.25,8.88-7.74,10.11-.28.06-.5.46-.09.48,4,.33,4.81-4.27,6.67-6.81,0,2.41,1.36,3.59-.61,5.7-.82,2.48.67,5.19-1,7.56,1,0,1.68-2,1.93-3.05.36-1.4-.42-2.88.09-4.24.52-1.15,1.61-1.85,1.42-3.26-.58-2-1.27-4.46.88-5.78l12,1.7a8.23,8.23,0,0,0,3.84,5c.85,2-.76,4.62,1,6.42.07.08.37,0,.31-.09-.94-1.88.21-3.78.13-5.7,4.1.82,6.34,2.7,7.82,6-.16-7.4-9.68-5.6-11.57-11.69.24.5,8.42-10.4,8.66-10.62,2.1,1.38,4.77,2.17,7,1,.76.17,1.07,1,1.61,1.44a5.6,5.6,0,0,0,4.83.07c.24-.16-.08-.31-.25-.22-2.11.91-3.72-.7-4.79-2.3,2-2.39,4.36-5,7.77-4,.12,0,.56-.17.32-.29-7.68-3-8,7.2-15.93,2.59-.32-1.1-4.71-13-5.75-13.59,6.5-3.47,1.29-11.81,8.2-12.64.18,0,.37-.3.1-.3a5.59,5.59,0,0,0-5.32,4.07c-.72-1.85-2-4.34-.15-6,.29-.25-.18-.35-.38-.2-2.56,2.15-1.18,6.23.08,8.73-.24,2.78-2.55,4.48-4.73,5.76l-10.24-1.45a66.38,66.38,0,0,0-5.07-10.7c-1.28-1.47-1.23-1.18-5.49-2.66s-8.15-2.54-11.8.17c-6,4.6-8.84,6.45-16,2.41a10.5,10.5,0,0,1-4.8-2.63C400.57,52.64,399.46,51.58,399.13,52.06Z" style="fill:#ebebeb"></path><path d="M445.47,73.4a7.14,7.14,0,1,1-4.74,8.91A7.14,7.14,0,0,1,445.47,73.4Z" style="fill:#fafafa"></path></g><g id="freepik--cell--inject-106"><path d="M41.85,425.13c.65-1.05,2.11-.78,3-1.49a7.14,7.14,0,0,0-.44,3.88c-.4,0-.12.72-.32,1-.25.9-1.33,2.08-.77,2.95a15.79,15.79,0,0,0,1.26-3.25,6,6,0,0,1,.35,4.06c0,.17.15.33.2.11.91-4-1.61-6.37,1.67-10.38.07,1.72,1.14,3.17,2.14,4.53-.69,1.35-1.7,2.72-1.15,4.33.05.18.18,0,.16-.12-.45-1.5.69-2.56,1.31-3.76a4.72,4.72,0,0,1,1.07,3.18c0,.19.21.29.25.06.39-4.17-5.37-7.17-.94-11.05,6.2-5.17,0-11.93.7-18.19,1.09-3,3.35-5.5,5.57-7.74,1.48-1.5,6.63-2.29,10.3-2.55-.65,0,7,10.39,7.24,10.9-2.33,2.54-4.79,3.61-1.58,7-1.87-.75-3.56.7-4.7,2.05-.14.14,0,.74.21.56,1.63-1.44,3.81-2.13,5.73-.86-.17,2.09-2.41,3.44-2.57,5.6,0,.19.2.28.23.06.49-2.08,3.37-2.77,3.34-5.23,2.74,1.63-.1,4.51-.49,6.69.17,1.72,2.5-4.21,2.56-4.73.2-3-4.55-3.9-4.49-6.86.93-1.25,2.55-1.94,3.3-3.39.45,0,12.77-.93,13-1.24,1.66,3.68,7.05,5.32,6.93,9.67,0,.26.27.57.4.2,1.37-3.46-2.51-5.46-4.26-7.81,2.14.66,3.57-.23,4.92,2.1,2,1.41,4.82.82,6.49,2.93.25-.91-1.35-2.05-2.2-2.55-1.15-.7-2.69-.41-3.77-1.24-.88-.78-1.21-1.93-2.52-2.15-2,0-4.33-.08-4.93-2.36l4.8-10.29a7.69,7.69,0,0,0,5.48-2.08c2-.2,3.92,1.94,6,.89.09,0,.13-.32,0-.31-1.94.33-3.31-1.21-5-1.66,1.85-3.44,4.14-4.93,7.5-5.34-6.65-1.88-7.63,7.11-13.59,7.14.52-.08-7-10.35-7.12-10.63,1.8-1.49,3.24-3.67,2.84-6,.35-.63,1.15-.69,1.72-1a5.23,5.23,0,0,0,1.37-4.3c-.07-.25-.29,0-.26.17.24,2.13-1.64,3.13-3.36,3.65-1.6-2.39-3.29-5.25-1.4-8,0-.11,0-.55-.18-.37-4.74,6.05,4.25,9.12-2,14.93-1.08,0-12.92.66-13.71,1.43-1.32-6.74-10.19-4.37-9.05-10.76,0-.17-.17-.42-.24-.17a5.19,5.19,0,0,0,2.19,5.85c-1.85.14-4.41.58-5.37-1.48-.14-.33-.37.06-.29.29,1.24,2.86,5.25,2.74,7.83,2.3,2.41,1,3.3,3.5,3.85,5.79l-4.08,8.75a62.35,62.35,0,0,0-10.94,1.61c-1.67.75-1.39.78-3.87,4.18s-4.49,6.59-3.06,10.58c2.47,6.63,3.35,9.66-2.21,15a9.85,9.85,0,0,1-3.67,3.58C42.75,424,41.5,424.71,41.85,425.13Z" style="fill:#ebebeb"></path><path d="M73.52,389.57a6.67,6.67,0,1,1,6.67,6.66A6.67,6.67,0,0,1,73.52,389.57Z" style="fill:#fafafa"></path></g><g id="freepik--cell--inject-106"><path d="M428.08,305c.12-1.24,1.55-1.64,2.05-2.67a7.07,7.07,0,0,0,1.31,3.67c-.34.22.21.7.15,1,.17.91-.28,2.46.62,3a16.8,16.8,0,0,0-.31-3.48,6,6,0,0,1,2.1,3.49c.05.17.29.24.23,0-1-4-4.25-5-3.08-10,.82,1.5,2.43,2.34,3.92,3.11,0,1.52-.32,3.19.88,4.4.12.13.16-.09.09-.18-1.06-1.15-.51-2.61-.49-4a4.74,4.74,0,0,1,2.37,2.38c.07.19.32.17.25-.05-1.49-3.91-8-4.06-5.72-9.5,3.27-7.38-5.3-10.69-7.41-16.63-.34-3.17.58-6.41,1.58-9.41.66-2,4.94-5,8.12-6.83-.57.33,10.89,6.22,11.3,6.59-1,3.3-2.7,5.34,1.66,6.94-2,.15-2.89,2.19-3.31,3.91-.06.19.31.67.44.41.83-2,2.48-3.6,4.76-3.3.77,1.94-.65,4.14.16,6.16.06.17.31.16.24-.05-.49-2.09,1.8-4,.68-6.17,3.18.26,1.91,4.09,2.52,6.22.91,1.47.38-4.89.21-5.37-1.14-2.77-5.81-1.5-7.06-4.18.28-1.53,1.43-2.87,1.46-4.49.4-.22,11.05-6.48,11.08-6.85,3.11,2.57,8.67,1.67,10.49,5.62.09.25.5.39.45,0-.3-3.71-4.66-3.79-7.27-5.13,2.21-.36,3.1-1.79,5.34-.29,2.4.39,4.68-1.39,7.11-.23-.17-.93-2.11-1.25-3.1-1.32-1.34-.12-2.59.82-3.92.55-1.13-.31-2-1.2-3.22-.82-1.75.84-3.92,1.85-5.46.06l-.23-11.35a7.69,7.69,0,0,0,4-4.28c1.75-1.09,4.37,0,5.77-1.86.07-.07,0-.34-.13-.27-1.59,1.15-3.51.37-5.27.74.14-3.91,1.54-6.25,4.37-8.11-6.79,1.25-3.7,9.75-9,12.41.44-.29-10.84-6.2-11.07-6.39.95-2.14,1.28-4.72-.11-6.63,0-.72.73-1.13,1.08-1.7a5.19,5.19,0,0,0-.66-4.46c-.18-.2-.27.12-.16.26,1.15,1.81-.08,3.54-1.4,4.76-2.5-1.43-5.27-3.26-4.8-6.57,0-.12-.25-.49-.32-.24-1.59,7.51,7.83,6.3,4.78,14.28-1,.46-11.31,6.3-11.67,7.34-4.17-5.47-11.07.58-12.88-5.66,0-.17-.33-.3-.29,0a5.22,5.22,0,0,0,4.55,4.29c-1.59.94-3.7,2.46-5.46,1-.28-.24-.31.22-.14.38,2.37,2,5.92.15,8-1.39,2.6-.19,4.51,1.68,6,3.49l.2,9.66a62,62,0,0,0-9.1,6.28c-1.16,1.4-.9,1.31-1.62,5.46s-1.12,7.89,1.92,10.84c5.15,4.86,7.28,7.18,4.62,14.4a9.82,9.82,0,0,1-1.7,4.82C428.39,303.63,427.58,304.81,428.08,305Z" style="fill:#ebebeb"></path><path d="M440.79,259.13a6.66,6.66,0,1,1,8.93,3A6.67,6.67,0,0,1,440.79,259.13Z" style="fill:#fafafa"></path></g><g id="freepik--cell--inject-106"><path d="M80.05,260.77c-.28-1.21-1.75-1.43-2.37-2.38a7.13,7.13,0,0,1-.84,3.81c.37.17-.11.72,0,1,0,.93.59,2.4-.23,3a16,16,0,0,1-.14-3.48,6,6,0,0,0-1.64,3.73c0,.17-.25.27-.22,0,.43-4.11,3.58-5.5,1.77-10.35-.62,1.6-2.11,2.63-3.49,3.59.21,1.5.73,3.12-.31,4.47-.1.15-.17-.06-.12-.16.91-1.28.18-2.65,0-4a4.72,4.72,0,0,0-2,2.66c0,.2-.3.21-.26,0,1-4.06,7.4-5.05,4.46-10.15-4.2-6.89,3.88-11.28,5.21-17.45C79.73,232,78.4,228.88,77,226c-.92-1.89-5.54-4.31-8.93-5.74.6.26-10,7.57-10.37,8,1.39,3.15,3.37,5-.75,7.1,2-.11,3.15,1.8,3.79,3.45.08.18-.22.7-.39.46-1.08-1.89-2.92-3.24-5.14-2.66-.52,2,1.17,4,.63,6.13,0,.18-.28.2-.25,0,.22-2.13-2.29-3.71-1.46-6-3.12.66-1.37,4.3-1.7,6.49-.71,1.58-1-4.79-.9-5.3.78-2.89,5.57-2.22,6.46-5-.46-1.48-1.78-2.66-2-4.27-.43-.16-11.79-5-11.87-5.36-2.75,3-8.38,2.77-9.67,6.92-.06.25-.45.45-.45.06-.19-3.72,4.13-4.36,6.55-6-2.24-.08-3.31-1.38-5.33.4-2.34.68-4.83-.79-7.09.68.06-.94,1.93-1.51,2.91-1.71,1.31-.29,2.67.48,4,0,1.08-.45,1.77-1.44,3.08-1.22,1.85.6,4.13,1.32,5.43-.65l-1.23-11.28a7.74,7.74,0,0,1-4.51-3.74c-1.88-.85-4.33.57-6-1.1-.08-.06,0-.34.1-.29,1.72.94,3.52-.07,5.32.06-.65-3.85-2.34-6-5.38-7.48,6.89.37,4.93,9.2,10.56,11.15-.47-.24,10-7.54,10.16-7.76-1.22-2-1.88-4.52-.74-6.59-.14-.71-.88-1-1.3-1.55a5.21,5.21,0,0,1,.09-4.51c.15-.21.28.09.19.25-.91,1.93.54,3.49,2,4.54,2.29-1.75,4.81-3.92,3.92-7.13,0-.12.18-.52.29-.29,2.53,7.25-7,7.26-2.91,14.78,1,.33,12,4.79,12.51,5.78,3.43-6,11.06-.85,12-7.27,0-.17.29-.34.29-.08a5.2,5.2,0,0,1-4,4.83c1.71.73,4,2,5.56.33.24-.27.33.18.18.36-2.09,2.32-5.85.91-8.15-.34-2.6.14-4.25,2.24-5.51,4.23l1,9.61a62,62,0,0,1,9.83,5.05c1.34,1.25,1.07,1.19,2.31,5.21s2.12,7.68-.51,11c-4.48,5.48-6.29,8.05-2.74,14.87A9.84,9.84,0,0,0,79.31,259C79.56,259.41,80.52,260.48,80.05,260.77Z" style="fill:#ebebeb"></path><path d="M61.55,216.88A6.67,6.67,0,1,0,53.09,221,6.66,6.66,0,0,0,61.55,216.88Z" style="fill:#fafafa"></path></g><g id="freepik--cell--inject-106"><path d="M289.91,463.77c-1.19-.35-1.32-1.83-2.24-2.5a7.06,7.06,0,0,0,3.84-.62c.16.37.73-.08,1.05,0,.93,0,2.36.72,3.05-.06a15.75,15.75,0,0,0-3.48-.33,6,6,0,0,1,3.82-1.43c.18,0,.28-.24.05-.23-4.13.21-5.69,3.27-10.44,1.2,1.63-.53,2.75-2,3.78-3.29,1.49.3,3.08.9,4.49-.06.15-.09-.06-.18-.16-.12-1.33.83-2.66,0-4-.25a4.74,4.74,0,0,1,2.77-1.89c.19,0,.22-.28,0-.25-4.11.75-5.45,7.11-10.38,3.89-6.65-4.58-11.48,3.25-17.71,4.23-3.17-.24-6.2-1.74-9-3.27-1.83-1-4-5.77-5.23-9.23.22.62,8.11-9.57,8.55-9.91,3.06,1.55,4.76,3.64,7.12-.36-.22,2,1.63,3.24,3.24,4,.18.1.72-.18.48-.36-1.83-1.18-3.08-3.09-2.37-5.28,2.05-.4,4,1.39,6.08,1,.19,0,.22-.27,0-.25-2.14.1-3.58-2.49-5.94-1.79.83-3.08,4.37-1.13,6.57-1.34,1.62-.63-4.73-1.27-5.24-1.19-2.93.61-2.53,5.44-5.4,6.17-1.45-.55-2.55-1.93-4.15-2.25-.14-.44-4.34-12.05-4.69-12.15,3.09-2.59,3.22-8.22,7.44-9.28.25,0,.47-.42.09-.44-3.71-.39-4.59,3.89-6.37,6.21,0-2.24-1.19-3.38.69-5.3.81-2.3-.52-4.87,1.07-7-.94,0-1.61,1.84-1.86,2.8-.37,1.3.33,2.7-.18,4-.51,1.06-1.54,1.69-1.39,3,.5,1.89,1.09,4.2-.95,5.38l-11.2-1.84a7.65,7.65,0,0,0-3.48-4.71c-.75-1.93.81-4.3-.77-6-.06-.07-.34,0-.29.08.84,1.78-.27,3.52-.23,5.32-3.82-.85-5.87-2.66-7.17-5.78,0,6.9,8.91,5.43,10.54,11.15-.21-.47-8.07,9.53-8.31,9.73-1.92-1.34-4.4-2.13-6.54-1.11-.7-.17-1-.93-1.47-1.38a5.21,5.21,0,0,0-4.51-.16c-.22.14.07.28.23.2,2-.8,3.46.73,4.43,2.25-1.87,2.19-4.18,4.59-7.34,3.52-.12,0-.53.15-.3.27,7.1,2.93,7.63-6.55,14.91-2.09.28,1,4.13,12.27,5.08,12.81-6.13,3.1-1.45,11-7.92,11.63-.17,0-.35.27-.09.28a5.22,5.22,0,0,0,5-3.69c.64,1.74,1.75,4.09,0,5.56-.28.23.16.34.36.2,2.42-2,1.22-5.79.1-8.15.29-2.59,2.48-4.13,4.53-5.28l9.53,1.57a62.38,62.38,0,0,0,4.51,10.1c1.17,1.4,1.13,1.13,5.07,2.6s7.55,2.54,11,.09c5.72-4.17,8.39-5.84,15-1.91a9.92,9.92,0,0,1,4.44,2.56C288.59,463.2,289.6,464.22,289.91,463.77Z" style="fill:#ebebeb"></path><path d="M247.12,442.87a6.66,6.66,0,1,1,4.61-8.22A6.66,6.66,0,0,1,247.12,442.87Z" style="fill:#fafafa"></path></g><g id="freepik--cell--inject-106"><path d="M215.81,79.45c1.06-.66,2.25.23,3.36,0a7.17,7.17,0,0,0-2.11,3.28c-.38-.14-.43.59-.73.75-.62.68-2.12,1.27-2,2.3a16.2,16.2,0,0,0,2.57-2.36,6,6,0,0,1-1.49,3.79c-.11.15,0,.37.13.19,2.61-3.21,1.39-6.42,6.11-8.55-.7,1.56-.39,3.35-.09,5-1.22.91-2.73,1.69-3,3.38,0,.17.17.07.2,0,.26-1.54,1.75-2,2.84-2.79a4.71,4.71,0,0,1-.45,3.32c-.11.17.06.36.2.17,2.19-3.56-1.63-8.81,4.06-10.32,7.85-1.88,5.27-10.7,8.71-16,2.31-2.19,5.44-3.43,8.43-4.46,2-.68,7,.9,10.36,2.29-.61-.24,1.68,12.44,1.64,13-3.21,1.24-5.89,1.1-4.51,5.53-1.34-1.5-3.5-1-5.12-.26-.19.08-.34.66-.05.61,2.1-.57,4.35-.22,5.51,1.77-1.08,1.8-3.69,2-4.79,3.87-.11.16.05.34.18.16,1.36-1.65,4.25-1,5.31-3.2,1.73,2.67-2.09,4-3.41,5.77-.61,1.62,4.12-2.66,4.4-3.1,1.5-2.58-2.35-5.51-1-8.14,1.38-.71,3.14-.6,4.45-1.57.42.19,11.86,4.84,12.17,4.65-.15,4,3.95,7.89,1.91,11.73-.14.23,0,.64.27.37,2.77-2.49.18-6-.35-8.89,1.63,1.54,3.31,1.38,3.47,4.06,1.16,2.15,4,2.88,4.52,5.51.62-.7-.3-2.43-.84-3.26-.72-1.14-2.23-1.56-2.82-2.78s-.23-2.28-1.31-3c-1.73-.89-3.85-2-3.36-4.31l8.87-7.08a7.67,7.67,0,0,0,5.83.57c1.93.73,2.65,3.47,5,3.46.1,0,.26-.23.14-.28-1.88-.56-2.43-2.56-3.79-3.73,3.18-2.26,5.9-2.57,9.09-1.45-5.12-4.64-10,3-15.35.36.5.16-1.67-12.38-1.65-12.68,2.28-.54,4.53-1.85,5.2-4.12.6-.41,1.34-.1,2-.17a5.23,5.23,0,0,0,3.14-3.24c0-.26-.26-.13-.31,0-.73,2-2.86,2.08-4.63,1.78-.38-2.86-.61-6.18,2.3-7.81.09-.07.24-.5,0-.4-6.93,3.31-.24,10.05-8.44,12.47-1-.49-11.87-5.15-12.91-4.8,1.8-6.64-7.2-8.45-3.34-13.67.12-.13,0-.44-.14-.26a5.23,5.23,0,0,0-.64,6.22c-1.71-.69-4.2-1.44-4.14-3.71,0-.36-.36-.11-.39.13-.17,3.11,3.48,4.79,6,5.54,1.73,1.94,1.41,4.59.88,6.89l-7.55,6a63.2,63.2,0,0,0-10.51-3.42c-1.83-.07-1.6.09-5.33,2s-6.94,3.91-7.44,8.12c-.73,7-1.28,10.14-8.63,12.42a9.79,9.79,0,0,1-4.86,1.58C217.12,78.84,215.69,78.91,215.81,79.45Z" style="fill:#ebebeb"></path><path d="M260,61.65a6.66,6.66,0,1,1,3,8.93A6.67,6.67,0,0,1,260,61.65Z" style="fill:#fafafa"></path></g></g></g><g id="freepik--Dots--inject-106"><g id="freepik--dots--inject-106"><circle cx="142.46" cy="392.91" r="3.21" style="fill:#ebebeb"></circle><path d="M197.73,423.14a3.21,3.21,0,1,1-3.21-3.21A3.21,3.21,0,0,1,197.73,423.14Z" style="fill:#ebebeb"></path><path d="M379.29,420a3.21,3.21,0,1,1-3.2-3.2A3.2,3.2,0,0,1,379.29,420Z" style="fill:#ebebeb"></path><circle cx="456.13" cy="332.09" r="3.21" style="fill:#ebebeb"></circle><circle cx="424.88" cy="167.23" r="3.21" style="fill:#ebebeb"></circle><path d="M359.64,57a3.21,3.21,0,1,1-3.2-3.21A3.21,3.21,0,0,1,359.64,57Z" style="fill:#ebebeb"></path><circle cx="136.99" cy="68.73" r="3.21" style="fill:#ebebeb"></circle><circle cx="114.1" cy="136.36" r="3.21" style="fill:#ebebeb"></circle><path d="M62.08,329.33a3.21,3.21,0,1,1-3.21-3.21A3.21,3.21,0,0,1,62.08,329.33Z" style="fill:#ebebeb"></path><circle cx="454.7" cy="137.19" r="3.21" style="fill:#ebebeb"></circle><path d="M206.81,50a3.21,3.21,0,1,1-3.21-3.21A3.21,3.21,0,0,1,206.81,50Z" style="fill:#ebebeb"></path><path d="M323.58,86.91a3.21,3.21,0,1,1-3.21-3.21A3.21,3.21,0,0,1,323.58,86.91Z" style="fill:#ebebeb"></path><circle cx="344.76" cy="457.17" r="3.21" style="fill:#ebebeb"></circle><path d="M139.25,447.29a8.59,8.59,0,1,1,8.58-8.58A8.59,8.59,0,0,1,139.25,447.29Zm0-16.17a7.59,7.59,0,1,0,7.58,7.59A7.6,7.6,0,0,0,139.25,431.12Z" style="fill:#ebebeb"></path><path d="M307.63,428.94a8.59,8.59,0,1,1,8.59-8.59A8.59,8.59,0,0,1,307.63,428.94Zm0-16.17a7.59,7.59,0,1,0,7.59,7.58A7.59,7.59,0,0,0,307.63,412.77Z" style="fill:#ebebeb"></path><path d="M457.9,201.33a8.59,8.59,0,1,1,8.59-8.59A8.59,8.59,0,0,1,457.9,201.33Zm0-16.17a7.59,7.59,0,1,0,7.59,7.58A7.59,7.59,0,0,0,457.9,185.16Z" style="fill:#ebebeb"></path><path d="M376.09,119.13a8.59,8.59,0,1,1,8.58-8.59A8.6,8.6,0,0,1,376.09,119.13Zm0-16.18a7.59,7.59,0,1,0,7.58,7.59A7.6,7.6,0,0,0,376.09,103Z" style="fill:#ebebeb"></path><path d="M49.28,155.92a8.59,8.59,0,1,1,8.58-8.59A8.6,8.6,0,0,1,49.28,155.92Zm0-16.17a7.59,7.59,0,1,0,7.58,7.58A7.6,7.6,0,0,0,49.28,139.75Z" style="fill:#ebebeb"></path><path d="M178.73,107.52a8.59,8.59,0,1,1,8.58-8.59A8.6,8.6,0,0,1,178.73,107.52Zm0-16.17a7.59,7.59,0,1,0,7.58,7.58A7.59,7.59,0,0,0,178.73,91.35Z" style="fill:#ebebeb"></path><path d="M38.55,294.93a8.59,8.59,0,1,1,8.58-8.59A8.6,8.6,0,0,1,38.55,294.93Zm0-16.17a7.59,7.59,0,1,0,7.58,7.58A7.6,7.6,0,0,0,38.55,278.76Z" style="fill:#ebebeb"></path><path d="M399.75,356.4a8.59,8.59,0,1,1,8.58-8.59A8.6,8.6,0,0,1,399.75,356.4Zm0-16.18a7.59,7.59,0,1,0,7.58,7.59A7.6,7.6,0,0,0,399.75,340.22Z" style="fill:#ebebeb"></path></g></g><g id="freepik--Brain--inject-106"><g id="freepik--brain--inject-106"><path d="M353.47,391.71a4.91,4.91,0,0,0-.08-.86,140.53,140.53,0,0,0-6.33-29.29c-1.44-4.44-3.68-11.42,4-21.31,5.72-7.36-17.64-6.68-25.11-12.26-11.61-8.66-31-4.58-43.91,1-5.42,2.35-25.54,11.48-22.63,18.14,4.95,11.32,26.19,10.33,39.42,15.35,11.05,4.2,16.71,7.68,25.48,29.19,0,2.15,1.42,4.3,4.26,6,5.7,3.28,14.92,3.28,20.62,0,2.84-1.65,4.27-3.8,4.27-6Z" style="fill:#e0e0e0"></path><path d="M326,328c-11.61-8.66-31-4.58-43.91,1-5.42,2.35-25.54,11.48-22.63,18.14,4.95,11.32,26.19,10.33,39.42,15.35a61.73,61.73,0,0,1,6.1,2.62c.44-.42.88-.84,1.31-1.27a9.45,9.45,0,0,1,9.32-3.77c9.2.32,20.59-.15,30.27-3.24-.66-4.2-.15-9.69,5.23-16.61C356.79,332.89,333.43,333.56,326,328Z" style="opacity:0.1"></path><path d="M335.28,347.1c7.38-5,12.38-12.93,15.4-21.31s4.24-17.3,5.4-26.14c.44-3.3.8-6.93-1-9.73-1.92-3-5.88-4.13-9.41-3.69s-6.74,2.17-9.87,3.86c-10.56,5.74-21.2,11.53-30.42,19.25-7.94,6.63-28,26.79-17.68,37.67S324.33,354.51,335.28,347.1Z" style="fill:#455a64"></path><path d="M338.14,337.93c-4.07,6.91-11.66,14.22-19.67,15.06,24.17-.91,46.19-15.82,60.34-37.76s16.07-34.78,17.21-51.1c.33-4.68,0-15.37-3.75-18.18-2.41-1.81-5.74,3.23-8.63,4.07a23.63,23.63,0,0,0-7.79,4.47c-8.23,6.46-15.1,14.46-21.92,22.39s-18.8,17.71-15.85,29.61c1.28,5.14,4.51,10.61,4.58,15.88a31.16,31.16,0,0,1-3.42,13.53C338.91,336.57,338.54,337.25,338.14,337.93Z" style="fill:#37474f"></path><path d="M318.3,127.53c-11.08-19.5-26-16.06-29.43-11.09-9.82-5.67-18-3.3-20.65,2-18.14-10.48-29.44-3.61-30.59,5.23-26-10.27-37.08,3.11-36.32,12.29-19.5-3.82-26.76,4.17-27.15,12.41-20.64-1.7-24.09,9.38-23.32,16.27-21.41,0-25.62,14.53-23.71,23.9-15.67,5.45-19.25,21-14.21,24.72-17.9,7.2-19,29.25-14.84,36-9.18,12.49-6.36,27.4-2,30.08-7.91,11.09,2,19.54,7.39,20.29-5.74,12.59.12,20.58,12.1,22.89,5.1,23.73,30.65,21.49,35.47,19.36Z" style="fill:#47294C"></path><path d="M318.3,127.53c-11.08-19.5-26-16.06-29.43-11.09-9.82-5.67-18-3.3-20.65,2-18.14-10.48-29.44-3.61-30.59,5.23-26-10.27-37.08,3.11-36.32,12.29-19.5-3.82-26.76,4.17-27.15,12.41-20.64-1.7-24.09,9.38-23.32,16.27-21.41,0-25.62,14.53-23.71,23.9-15.67,5.45-19.25,21-14.21,24.72-17.9,7.2-19,29.25-14.84,36-9.18,12.49-6.36,27.4-2,30.08-7.91,11.09,2,19.54,7.39,20.29-5.74,12.59.12,20.58,12.1,22.89,5.1,23.73,30.65,21.49,35.47,19.36Z" style="fill:#fff;opacity:0.30000000000000004"></path><path d="M236.86,126.45a45.82,45.82,0,0,0-18-3.4c-5.32.23-11.81,4.93-9.45,9.41a7.65,7.65,0,0,0,2.88,2.84c3.31,2.08,6.31.84,9-1.45,3.38-2.88,6.55-3.82,11-4l7.47-.33C239.89,128,238.27,127,236.86,126.45Zm24.21-9.34c-3.9-1.2-17-3.75-15.81,4.19a1.93,1.93,0,0,0,.2.71,1.72,1.72,0,0,0,.67.64,6.23,6.23,0,0,0,5.13.12c1.66-.57,3.21-1.47,4.91-1.94,3.94-1.08,7.32.74,11.25.41C266.06,119,263.54,117.86,261.07,117.11Zm-79.33,38.35c-6.26-4-25.14-7.3-23,5.34.41,1.71,1.68,3.43,3.44,3.49,1.42.05,2.62-1,3.76-1.85a20.6,20.6,0,0,1,13.57-4.11,5.16,5.16,0,0,0,2.18-.13,1.54,1.54,0,0,0,1-1.71A2,2,0,0,0,181.74,155.46ZM142,169.59a12.6,12.6,0,0,0-7.79,6.41,3.75,3.75,0,0,0,4.44,5.39,8.82,8.82,0,0,0,4-2.35c1.15-1.07,2.19-2.26,3.44-3.22s2.47-1.55,3.67-2.37c.71-.48,1.45-1.17,1.38-2C150.89,168.52,143.84,169.15,142,169.59Zm-14.18,50c-7.74-4.88-17.61-2.27-22.84,5.1a18.81,18.81,0,0,0-3.38,10.66,17.32,17.32,0,0,0,.81,5.59c1.84,5.44,3.85-4,5.06-5.47a10.91,10.91,0,0,1,8.22-4.11l7.7-.07c3.09,0,6.77-.39,8.22-3.12a5.4,5.4,0,0,0-.18-5A10,10,0,0,0,127.79,219.59Z" style="fill:#fff;opacity:0.2"></path><path d="M151,341.86l22.85-29.28a60.75,60.75,0,0,0-2.69-16.17c-3.59-11.23-11.68-21.49-22.83-25.32a3.52,3.52,0,0,0-1.23-.26c-2.94.05-5.73,6.13-8.07,7.78-.92.64-10.54,5.67-11.16,4.14,1.19,2.94-1.45,6.12-4.36,7.37a15.69,15.69,0,0,1-13.59-1.06,20.74,20.74,0,0,1-7-6.48c-3.31-4.87-4.66-11.07-2.46-16.63,1.16-2.93,3.72-5.52,6.86-5.77a59.76,59.76,0,0,1-10.63-8.86c-7.46,12-4.74,25.47-.65,28-7.91,11.09,2,19.54,7.39,20.29-5.74,12.59.12,20.58,12.1,22.89C120.63,346.23,146.18,344,151,341.86Z" style="fill:#47294C;opacity:0.30000000000000004"></path><path d="M144,343.08a21.64,21.64,0,0,0,7-1.22L311.29,136.5l-9.8-9.28c-11.47-5.26-21.17-3.17-26.68,2.3-2.59-1.21-8.23-2-11.11-2.18-1.37-2.36-3.62-4-4.7-4,.93,1.59,2.64,4.14,1.7,4.27-9,1.16-17.5,5.94-19.48,11.06-3.81-.55-8,1.84-8,1.84l-1.58-3.78s-16.34,4.33-24.63,17.94l3.59.44a42.11,42.11,0,0,0-4.14,5.75s-20.2-1.8-30.17,12.66a24.31,24.31,0,0,0,7,2s-23.68,8.69-22.93,28.89c0,0-2.5-.7-5.74,2.89,0,0-2.65-3.6-11-5.86,8.59,6.52,6.18,20.17,3.38,23.91s-9.78,12.49-8.78,21.2c0,0-10.47,3-19-2.62,0,0,4.41,7.85,15.29,9.34-4.82,11.22-3.4,22.17,0,27.29a20.6,20.6,0,0,1-22.18,2.63c4.78,8.29,18.11,7.23,18.11,7.23s-4.87,11.29,2.42,19.73c0,0-3.17,2.23-8.9,1.81,4.48,4.39,13.7,1.9,13.7,1.9s1,4,2.75,6A21.5,21.5,0,0,0,144,343.08Z" style="fill:#47294C;opacity:0.5"></path><path d="M113.6,213.08a37,37,0,0,1,6.28-.74c4.45-.13,8.73.77,13.06,1.61.36.07.28-.66.08-.78a26.68,26.68,0,0,0-13.91-3.75,34.54,34.54,0,0,0-7.52.65l-.53.12a5.28,5.28,0,0,0,1.86,3.05l0,0C113.13,213.2,113.36,213.13,113.6,213.08Z" style="fill:#47294C"></path><path d="M127,286.82c7.2-1.26,13.11-5.76,17.18-11.69A52,52,0,0,0,147,270.6c.81-1.48,2.25-3.41,2-5.17a2.71,2.71,0,0,0-1.89-2.2c-1.7-.32-2.91,1.89-3.56,3.09C140,272.83,136,279,128.84,281.83c-7.45,2.9-15.37,1.21-22-2.82-.51-.31-.61.64-.36.91A22.35,22.35,0,0,0,127,286.82Z" style="fill:#47294C"></path><path d="M153.49,166.6a22.19,22.19,0,0,1,5.89,8.92c.07.21.24-.08.22-.2-.8-3.72-2-7.26-4.57-10.15a17.51,17.51,0,0,0-4.24-3.41,15.9,15.9,0,0,0,.05,2.86h-.07A14.92,14.92,0,0,1,153.49,166.6Z" style="fill:#47294C"></path><path d="M130.92,187.74a34.36,34.36,0,0,1,12.46.46c.23.06.3-.53.09-.61a33.63,33.63,0,0,0-13-2.11q-1.83.09-3.66.36a22.54,22.54,0,0,0,.34,2.68.84.84,0,0,0-.14.06A32.28,32.28,0,0,1,130.92,187.74Z" style="fill:#47294C"></path><path d="M156.68,238c.38-1.67-2.17-3.09-3.45-2s-2.52,2.54-3.91,3.68a27.76,27.76,0,0,1-5.39,3.42,27.1,27.1,0,0,1-13.29,2.86c-6.81-.38-14.18-3.77-17.58-10-.43-.78-.89.25-.65.78a22.56,22.56,0,0,0,19.38,13.29A30.14,30.14,0,0,0,146,247.13C149.65,245.44,155.71,242.29,156.68,238Z" style="fill:#47294C"></path><path d="M137.26,310.09a17.43,17.43,0,0,0,4.88-5.91A18.6,18.6,0,0,0,143.6,300c.37-1.6.91-3.31,0-4.8-.41-.67-1.57-1.37-2.28-.68-1.13,1.09-1.15,2.83-1.5,4.29a15.66,15.66,0,0,1-1.2,3.47,15,15,0,0,1-4.37,5.38,17.83,17.83,0,0,1-13.69,3.09c-.38-.06-.3.73-.07.86A15.59,15.59,0,0,0,137.26,310.09Z" style="fill:#47294C"></path><path d="M110.21,299.54a17,17,0,0,1-4,.4c-.75,0-1.43-.17-2.16-.24-.23,0-.46-.07-.69-.1h0c-.33.71-.6,1.4-.85,2.09a13.3,13.3,0,0,0,9.16-1.15,5.89,5.89,0,0,0,1.56-1.24,3.39,3.39,0,0,0,.53-.82,2.7,2.7,0,0,0,.27-1c-.14,0-.28.08-.38.18A7.72,7.72,0,0,1,110.21,299.54Z" style="fill:#47294C"></path><path d="M107.62,261.29a35.18,35.18,0,0,0,3.91,1.89,31.44,31.44,0,0,0,4,1.13c.09,0,.11-.19,0-.23-4.51-3-9.41-5.65-13.28-9.51a25.48,25.48,0,0,1-4.25-5.34l0,0,0,0c-.57.77-1.09,1.55-1.57,2.34a27.48,27.48,0,0,0,4,4.7A35.09,35.09,0,0,0,107.62,261.29Z" style="fill:#47294C"></path><path d="M147.05,312.73c-1.2.68-1.41,2.1-1.7,3.34a24.42,24.42,0,0,1-.82,2.77,15.56,15.56,0,0,1-2.91,4.93,11.13,11.13,0,0,1-4.09,2.93,9.87,9.87,0,0,1-2.41.52c-.39,0-.81,0-1.2.11s-.56.29-.92.39a.22.22,0,0,0-.08.31,3.25,3.25,0,0,0,1.54,1.06,5.72,5.72,0,0,0,1.42.25,10.5,10.5,0,0,0,3.05-.33,12.06,12.06,0,0,0,5.79-3.31,16.14,16.14,0,0,0,3.39-5.56,25.09,25.09,0,0,0,.93-3.06,7,7,0,0,0,.22-1.65,3.68,3.68,0,0,0-1-2.35A1,1,0,0,0,147.05,312.73Z" style="fill:#47294C"></path><path d="M257.73,138.58a5.19,5.19,0,0,0,2.09-1.26,10.18,10.18,0,0,0,1.07-1.8,9.52,9.52,0,0,0,1.33-3.93,10.31,10.31,0,0,0-3.22-8.2c-.61-.55-.89.56-.58,1a7.83,7.83,0,0,1,1.21,3.2,8.26,8.26,0,0,1,.06,3.5,12.23,12.23,0,0,1-1.22,2.89,10.43,10.43,0,0,0-.9,1.72,15.92,15.92,0,0,0-.28,2.29C257.26,138.22,257.4,138.71,257.73,138.58Z" style="fill:#47294C"></path><path d="M174.16,148.35l-.41,0a28.89,28.89,0,0,1,5.81,1.37,26.12,26.12,0,0,1,8.48,5c.37.33.53-.57.27-.82a32.09,32.09,0,0,0-10.06-6.68,24.47,24.47,0,0,0-3.75-1.21A15.2,15.2,0,0,0,174.16,148.35Z" style="fill:#47294C"></path><path d="M138,200.78c-.53.14-.43,1.34.12,1.37,5.11.24,10.6,1.88,14,5.89a18.3,18.3,0,0,1,3.66,6.93,17.34,17.34,0,0,1,.62,3.79c.09,2.11-.08,4.19.77,6.17.25.6,1.46,1.44,2.08.79a4.1,4.1,0,0,0,.81-.94,7.33,7.33,0,0,0,.61-1.44,11.3,11.3,0,0,0,.47-3.16,18.91,18.91,0,0,0-.65-4.72,19.28,19.28,0,0,0-4.29-8.14C151.76,202.4,144.73,199,138,200.78Z" style="fill:#47294C"></path><path d="M287.25,125.31c.25.72.27,1.22.48,2,.1.4.23.8.36,1.19.07.22.12.5.21.72l0,.08a4.86,4.86,0,0,1,.07.55c0,.29.34.4.46.1.06-.14.11-.28.16-.42a2.46,2.46,0,0,0,.48-1.1,3.26,3.26,0,0,0,0-1.49,10.81,10.81,0,0,0-.83-2.66,8.42,8.42,0,0,0-3.57-3.89c-.35-.19-.42.59-.27.76A12.91,12.91,0,0,1,287.25,125.31Z" style="fill:#47294C"></path><path d="M269.34,119.14a37.68,37.68,0,0,1,3.35,2.53,21.74,21.74,0,0,1,3.1,3c.2.25.4-.29.27-.47a25.7,25.7,0,0,0-2.38-3.12,27.21,27.21,0,0,0-3.43-3.1c-.39-.31-.8-.59-1.21-.88a9,9,0,0,0-.82,1.28l-.52-.28C268.25,118.48,268.81,118.78,269.34,119.14Z" style="fill:#47294C"></path><path d="M212.75,139.84c.08,0,.11-.16.06-.2a26.34,26.34,0,0,0-4.43-3,46.28,46.28,0,0,0-4.47-2.06c-.83-.33-1.69-.61-2.55-.87a11.07,11.07,0,0,0-.05,2.22c.7.17,1.41.35,2.11.54A72.12,72.12,0,0,1,212.75,139.84Z" style="fill:#47294C"></path><path d="M205.11,155.62a32.14,32.14,0,0,0,15.68.36c4.91-1.15,9.79-3.81,12.26-8.4a11.38,11.38,0,0,0-1.3-13.31c-.69-.78-1.24.19-1,.89a13.56,13.56,0,0,1-2,11.7c-2.54,3.55-6.93,5.4-11.11,6.09a35.37,35.37,0,0,1-15-.85,30,30,0,0,1-5.57-2.13c-1.77-.88-3.42-2.4-5.27-3-.15,0-.19.26-.14.34C194.17,151.63,200.45,154.32,205.11,155.62Z" style="fill:#47294C"></path><path d="M239.29,124.39c1.85.87,3.71,1.78,5.48,2.81.25.14.35-.41.19-.55a33,33,0,0,0-2.58-2.15c-.92-.65-1.86-1.26-2.84-1.82-.49-.29-1-.54-1.52-.81a12.31,12.31,0,0,0-.39,1.78l-.23-.08C238,123.83,238.67,124.09,239.29,124.39Z" style="fill:#47294C"></path><path d="M182.92,173.18a26,26,0,0,1-16.41-7.63c-.56-.56-.86.55-.56,1a25.1,25.1,0,0,0,16.21,10,25.36,25.36,0,0,0,11.73-.9,27.7,27.7,0,0,0,5.47-2.38c1.61-.93,4.22-2.32,3.75-4.51-.14-.67-.65-1.41-1.42-1.33-1.61.15-2.84,1.13-4.18,2a24.86,24.86,0,0,1-4.32,2.23A24.17,24.17,0,0,1,182.92,173.18Z" style="fill:#47294C"></path><path d="M374.34,159.65c-3.6-21-19.35-16.08-19.35-16.08s-8.75-16.65-22.6-13c-10.7-12.15-25.55-8.58-28.25-2.26-11.71-9.44-26.55-.44-28.35,4.51-17.44-7.42-30.15,3.83-32.4,11.81-19.8-3.26-31.8,13.79-32.77,19.22-21.67,0-25.27,18-25.27,18s-9.9,0-17.1,12.12-3.6,19.27-3.6,19.27-17.1,4.13-15.75,33.38c-13.05,12.15-7.65,30.6-7.65,30.6s-16.2,19.44,3.15,39.42c-3.6,21.33,9.9,30,20.25,32.66,2.25,15.67,23.4,17,31.5,13,8.1,9.45,22.94,6.75,30.14,3.15,10.8,8.1,23.25,3.6,28.28-3.15,8.62,8.1,22.57-2.25,26.62-9.45,13.95,9.9,27-10.8,27-10.8s18.9.45,26.55-21.15c12.43,7.17,25.2-8.33,26.1-14.06,10.8,1,15.3-21.57,15.3-21.57,15.75-3.07,15.3-27.37,15.3-27.37,15.76-9.1,13.95-29.17,10.35-34.16,9-7.69,2.25-27-7.65-29.74C399.7,175.67,387,155.74,374.34,159.65Z" style="fill:#47294C"></path><path d="M374.34,159.65c-3.6-21-19.35-16.08-19.35-16.08s-8.75-16.65-22.6-13c-10.7-12.15-25.55-8.58-28.25-2.26-11.71-9.44-26.55-.44-28.35,4.51-17.44-7.42-30.15,3.83-32.4,11.81-19.8-3.26-31.8,13.79-32.77,19.22-21.67,0-25.27,18-25.27,18s-9.9,0-17.1,12.12-3.6,19.27-3.6,19.27-17.1,4.13-15.75,33.38c-13.05,12.15-7.65,30.6-7.65,30.6s-16.2,19.44,3.15,39.42c-3.6,21.33,9.9,30,20.25,32.66,2.25,15.67,23.4,17,31.5,13,8.1,9.45,22.94,6.75,30.14,3.15,10.8,8.1,23.25,3.6,28.28-3.15,8.62,8.1,22.57-2.25,26.62-9.45,13.95,9.9,27-10.8,27-10.8s18.9.45,26.55-21.15c12.43,7.17,25.2-8.33,26.1-14.06,10.8,1,15.3-21.57,15.3-21.57,15.75-3.07,15.3-27.37,15.3-27.37,15.76-9.1,13.95-29.17,10.35-34.16,9-7.69,2.25-27-7.65-29.74C399.7,175.67,387,155.74,374.34,159.65Z" style="fill:#fff;opacity:0.5"></path><path d="M314.77,127.25a3,3,0,0,0-2.39,1.5,3.39,3.39,0,0,0,.49,2.65c1.43,2.9,2,6.32,5.55,7.13,1.48.35,3,.34,4.51.73,3.28.86,5.74,3.5,8.13,5.91,1.09,1.09,2.38,2.23,3.92,2.16.78-2.79-.6-5.69-2-8.21C329.06,132.17,323.62,125.61,314.77,127.25Zm-26,6.61c3.17.87,6.53,1.06,9.54,2.37,2.39,1,4.44,2.75,6.8,3.86.32.15.74.28,1,0a.92.92,0,0,0,.13-.9,14.75,14.75,0,0,0-5.83-8.89c-2.45-1.73-7.31-3.81-10.44-3.18C286.14,127.94,284.1,132.57,288.76,133.86ZM277,139a20.77,20.77,0,0,0-12.73-4.63c-2.61,0-10.14,1.86-10.16,5.19,0,1.39,1.66,2.11,3,2.32,4.55.68,9.24-.28,13.78.46a34.91,34.91,0,0,1,8,2.67,1.22,1.22,0,0,0,.89.13c.46-.18.52-.81.43-1.29A8.63,8.63,0,0,0,277,139Zm-27.25,32.23a29.41,29.41,0,0,1,10.87,1.86c.25-2.08-2.09-3.42-4-4.18l-9.88-3.81a13.07,13.07,0,0,1-5.2-3c-1.36-1.49-1.92-3.93-.69-5.54.7-.91,1.91-1.53,2.1-2.66.21-1.3-1.06-2.34-2.24-2.94a15.84,15.84,0,0,0-11.77-1.26c-5.42,1.72-10.08,8-6.92,13.56,1.15,2,3,3.56,4.51,5.29a24.17,24.17,0,0,1,4.21,6.62c1.72,4,3.67,9.87,8.31,11.4a3.89,3.89,0,0,0,4.08-.86c2.47-2.77-1.56-7.13-.53-10.69C243.41,172.19,246.89,171.24,249.79,171.19Zm-51.42.26c-1.4,1-2.77,2.05-4.09,3.15a7,7,0,0,0-2,2.3,2.6,2.6,0,0,0,.32,2.88c.8.78,2.06.72,3.18.68A26.09,26.09,0,0,1,213,186.14a15.13,15.13,0,0,0,3.76,2.62.89.89,0,0,0,.71.06c.3-.15.36-.54.38-.88a20.29,20.29,0,0,0-5.52-14.5C207.79,168.61,204,167.46,198.37,171.45Zm-7.45,37.6c-1.51-.08-2.87.77-4.26,1.37-4.1,1.78-9.24,1.07-12-2.63a16.65,16.65,0,0,1-2.52-5.67,2.37,2.37,0,0,0-.87-1.53c-2.36-1.34-2.18,5.41-2.1,6.29.47,4.82,2.29,9.06,6.21,12.15,3.18,2.51,7.67,2.64,11.61,1.69a12.7,12.7,0,0,0,5.36-2.49,7.31,7.31,0,0,0,1.76-2.26,5.52,5.52,0,0,0,.59-3A4.32,4.32,0,0,0,190.92,209.05ZM358,153.8a16.08,16.08,0,0,1,7.77,5.95c.58.82,1.34,1.83,2.33,1.62.78-.16,1.18-1,1.34-1.82.59-3.09-.81-7.05-2.78-9.42s-12.32-5.36-12.29.05C354.42,152.18,356.46,153.24,358,153.8Zm29.83,21.1c-.63-1.16-2.29-3.52-3.95-3s-1.29,2.43-1.52,3.73a2.75,2.75,0,0,1-2.57,2c-2.07.16-4.54-1-6.63-1.29a7.64,7.64,0,0,0-3.23.07,2.78,2.78,0,0,0-2,2.29c-.09,1.32,1.07,2.36,2.11,3.17,5.57,4.34,11.36,8.86,14.47,15.19,2.74,5.57,5.16-1.63,5.79-4.37A27.3,27.3,0,0,0,387.87,174.9Zm-28.13,16c-1,1.18-.89,2.92-1.55,4.32-1.29,2.72-4.87,3.32-7.88,3.32a58.31,58.31,0,0,1-14.53-1.81c-.78,1.11.52,2.49,1.68,3.18a54.69,54.69,0,0,0,26,7.52,15.23,15.23,0,0,0,5.34-.56,6.31,6.31,0,0,0,3.94-3.44C374.52,198.9,364.35,185.31,359.74,190.87ZM325.2,172.11c-3.14-2.65-12-8.72-16.25-5.73-2.84,2-.91,4,1.85,5.56a48.33,48.33,0,0,0,6.36,2.77,52.31,52.31,0,0,1,7.54,3.3c.92.54,6.23,4.68,5.19,1A14.16,14.16,0,0,0,325.2,172.11Zm-52.21,27c-1.51-.4-3,.87-3.62,2.32a20.3,20.3,0,0,0-.79,4.49l0,.13a12.18,12.18,0,0,1-9,9.57c-1,.22-2.13.49-2.4,1.43s.74,1.89,1.74,2.08c3.9.74,8.33.95,12-1,5.87-3.12,8.21-11.56,4.37-17.1A4.4,4.4,0,0,0,273,199.13Zm-37,51.05a7.21,7.21,0,0,1-3.6-2.17c-1.78-2.37-.26-9.06-4.34-9.3-3.06-.17-6.83,4.5-7.84,6.94a9.2,9.2,0,0,0,2,10.15,11.11,11.11,0,0,0,2.61,1.66c4.55,2.17,10.18,2.35,14.51-.21a4,4,0,0,0,1.63-1.51,3.28,3.28,0,0,0-1.12-3.79A11.27,11.27,0,0,0,236,250.18ZM162.86,314c-1-.75-2.12-1.25-3.12-2a9.73,9.73,0,0,1-3.84-7.58,13.23,13.23,0,0,1,2.77-8.18c1.56-2.08,3.74-4.17,3.41-6.74-.3-2.38-2.67-3.9-4.93-4.69-7-2.41-12.75.41-14.55,7.87a19.89,19.89,0,0,0,21.92,24.4A3.8,3.8,0,0,0,162.86,314Zm-1-64.49c-.7,5.32,3.17,10.79,1.37,15.85-.16.44-.31,1,.07,1.29a.93.93,0,0,0,.52.12c2.15,0,4.08-1.42,5.4-3.13a13.54,13.54,0,0,0,.15-15.91C167,244.49,162.44,245.34,161.9,249.54Zm142.85-20.78c-3.11,3-7,3.17-11.1,2.89-3.23-.21-6.55-.94-9.43-1-1.47,0-3.39.33-3.58,1.79-.14,1,.77,1.88,1.6,2.52,7.32,5.73,17.16,9.68,23.78.24C307.46,233.17,309.29,224.31,304.75,228.76Z" style="fill:#fff;opacity:0.2"></path><path d="M182.94,328.62c2.9-1.81,4.56-5.14,5.14-8.51a36.65,36.65,0,0,0-.18-10.19c-1.4.21-4.29.71-5.69.92-1.11,7.37-8.1,13-15.49,14s-14.89-1.75-21-6c-.46-.31-.95-.64-1.45-.92-2.84,20.37,10.27,28.81,20.41,31.37,1.72,12,14.56,15.6,24.11,14.79a4.83,4.83,0,0,1-1.53-1.65,8.9,8.9,0,0,1-.8-4.92c.68-9.49,9.16-17.78,18.66-18.26A27.36,27.36,0,0,1,200,323.64C194.91,327.12,188.77,330.58,182.94,328.62ZM224.47,281c1.53-1.88,5.7-7.31,5.19-10-.42-2.2-7.79-2.08-10.17-3.11A9.33,9.33,0,0,1,206,278.65a38.55,38.55,0,0,1-2.22,11.69c-1.16,3.27-2.78,6.79-1.57,10a9.27,9.27,0,0,0,2.31,3.31c6,5.85,15.07,6.73,23.4,7.29-3.76-.61-7.68-1.58-10.43-4.22a14.34,14.34,0,0,1-4-9.19,42.48,42.48,0,0,1,.71-10.18A17.27,17.27,0,0,0,224.47,281Zm54.76-94.63c1.62,1.74,4.45,2.05,5.89,4-1.73-4.8-2.33-10.61.81-14.64a12.31,12.31,0,0,1,7.79-4.26,28,28,0,0,1,9,.32,5.85,5.85,0,0,1-2.23-4.39c0-10.27,15-4.55,20-3.49-6.48-4.79-15.31-6.62-23.22-5.5a33.49,33.49,0,0,1-28.3,11.69,37.15,37.15,0,0,1,8.39,12.86A10.36,10.36,0,0,0,279.23,186.38ZM256.68,288.11c.57,5.45,1.38,10.64.91,16.17a28.45,28.45,0,0,1-1.68,8.06c-1.91,4.86-5.69,8.71-9.37,12.41-1.57,1.58-3.27,3.23-5.45,3.68-.19,4,.5,8.26,2.88,11.51,3.56,4.87,10,6.52,15.84,7.84a14.44,14.44,0,0,1-7.71-4.39,9,9,0,0,1-1.94-8.42c1.31-4,5.63-6.12,8.08-9.55a11.69,11.69,0,0,0,1.94-8.89,51,51,0,0,1,8.46.47,38.35,38.35,0,0,0-2.54-18.23C265,296.12,260.87,285.51,256.68,288.11Zm-56.05-57.9a15.65,15.65,0,0,0,4.08,5.88c3.14,3.25,6.18,4.77,8.74,5s3.29-2.76,3.35-5.33c0-.23-4.8-3.37-5.27-3.79a29.19,29.19,0,0,1-4.27-4.88c-2.66-3.82-3.43-7.88-5-12a21.43,21.43,0,0,1-10.84,11.31,23.87,23.87,0,0,1-16.87.82A23.87,23.87,0,0,0,200.63,230.21Zm83.45,106.44c-.39-1.75-.44-3.71-1.62-5.06a52.77,52.77,0,0,1,1.75,10.93c.06,3.36-1.29,7.38-1.81,11.08,8.94,5.25,17.35-1.53,22-6.72a30.55,30.55,0,0,1-11.26-1.56C289,343.79,285.07,341.11,284.08,336.65Zm97.41-70.5c-2-3-5.34-5.09-8.09-7.42,3.66,3.1,4.16,11.4,4.68,15.76.09.83.2,5.87.31,10.12a15.91,15.91,0,0,0,8.06-6.74,36.43,36.43,0,0,0-1.11-3.5A39.25,39.25,0,0,0,381.49,266.15Zm18.18-68.68a13.13,13.13,0,0,0-4.56-3.13,20.84,20.84,0,0,1-2.63,7.25c-1.89,3-5.05,5.39-8.6,5.62-1.44.09-3-.15-4.28.47a9.08,9.08,0,0,0-2.42,2.13,15.85,15.85,0,0,1-8.14,4.51l4,18.79a28,28,0,0,1,15.66,4c-2.61-2.36-5.36-5-6-8.43-.89-4.59,2.17-9.37.9-13.87,4.47-1.39,9-3.11,12.32-6.41A14.33,14.33,0,0,0,399.67,197.47Zm-59.16,94.86a7,7,0,0,1-2.55-2.94,10.39,10.39,0,0,1-.5-4.16c0-2.66.09-5.32.13-8,.06-3.32-.16-7.21-2.89-9.1,1.84-2.1,2.6-4.92,3.18-7.66s1.08-5.56,2.55-7.94,4.19-4.23,6.94-3.75a8.88,8.88,0,0,1-7.25-9.63c.33-2.44,1.68-4.24,2.95-6.25.56-.89,1.67-4.93,2-5.23A44.5,44.5,0,0,1,332.48,235a55,55,0,0,1-2.86,29.33,9.66,9.66,0,0,0-.68,2.22,10.65,10.65,0,0,0,.15,2.87,35.52,35.52,0,0,1-.83,13.54c-.44,1.69-1,3.44-.68,5.16.56,2.87,3.37,4.66,6,5.91a22.24,22.24,0,0,0,8.29,2.46,10,10,0,0,0,7.92-2.87A10.61,10.61,0,0,1,340.51,292.33Zm-65.58-9.5c-2.07-3.81-.89-8.45-.66-12.78a28.22,28.22,0,0,0-8.14-21.24,41.15,41.15,0,0,0,3.44-8.21c.73-2.59,1.21-5.34,2.82-7.49a31.14,31.14,0,0,1,2.12-2.33c.78-.83,1.48-1.74,2.25-2.58,4.08-4.46,14-9.5,20.18-6.53a34.83,34.83,0,0,0-15.89-3.5,9.67,9.67,0,0,0-2.74.35,11.54,11.54,0,0,0-3.62,2.3c-4,3.27-8.91,6.57-13.92,5.32a68.33,68.33,0,0,1-3.31,22.66,5.42,5.42,0,0,0-.41,2.65,6.38,6.38,0,0,0,1.83,2.81c4.8,5.47,5.16,13.42,5.25,20.7a16.33,16.33,0,0,0,.5,4.63c1.4,4.55,6.4,7,11.09,7.86a34.43,34.43,0,0,0,10.72.3C282,288.29,277.05,286.72,274.93,282.83Zm35.14,18.92c-2.71.82-5.43.12-8.05,1.3a5.8,5.8,0,0,0-1.63,1.42c-3,3.08-7.68,3.54-12,3.81l.23,7.54c0,.33,11.35-3.88,12.38-4.55,2-1.33,2.94-2.85,5.2-3.35a20.63,20.63,0,0,1,8.12.51c3.22.75,6.35,2.57,7.93,5.48a18,18,0,0,1,1.48,4.55c1.44-7.61-1.22-14.84-4.71-21.5A26.11,26.11,0,0,1,310.07,301.75Z" style="fill:#47294C;opacity:0.30000000000000004"></path><path d="M293,144.36c5.11.3,11.82,3.54,13.32,8.42a35.09,35.09,0,0,1,28.18,14.87,2.87,2.87,0,0,0,1.15,1.14,2.91,2.91,0,0,0,1.38.08,26.59,26.59,0,0,1,16.35,3.75,48.15,48.15,0,0,0-18.34-.1,8.42,8.42,0,0,1-2.91.23c-1.7-.29-3-1.65-4.19-2.86A38.9,38.9,0,0,0,305.23,159c-3.46-.4-7.35.84-7.56-3.3C297.6,154.16,299.26,149.92,293,144.36Z" style="fill:#47294C;opacity:0.30000000000000004"></path><path d="M341.81,152.16c.05.15.18.1.17,0a90.18,90.18,0,0,0-1.27-9c1.47,1.18,2.91,2.4,4.27,3.69a21.64,21.64,0,0,1,5,6.56c.29.65.85-.07.67-.55a26.25,26.25,0,0,0-1.84-4.08,33.27,33.27,0,0,0-2.8-4,37.64,37.64,0,0,0-2.86-3.06c-1-.94-2.16-2-3-2.81a3,3,0,0,0-.86-.55,43.23,43.23,0,0,0-4-8.25,16,16,0,0,0-3,.45h0l.63,1A100.79,100.79,0,0,1,341.81,152.16ZM166.87,223.24a32.39,32.39,0,0,0,17.32,6.47c6,.51,11.88-1.4,15.77-6.19a15.92,15.92,0,0,0,2.23-3.8,25.7,25.7,0,0,0,5.15,10.88c1.95,2.33,5.14,5.28,8.45,5.55-2.61,2.62-4.47,6.46-3.46,10.06.17.59,1.37,1.58,1.86.75,1.1-1.85,1.64-3.93,2.87-5.72a15.38,15.38,0,0,1,3.34-3.63,14.2,14.2,0,0,1,4.76-2.34,12.81,12.81,0,0,1,2.38-.45c.42,0,.83-.11,1.24-.18a9.69,9.69,0,0,0,1.3-.38c.5-.17.43-1.06,0-1.29a7.4,7.4,0,0,0-3.64-1.06,15.14,15.14,0,0,0-3.29.28,14.7,14.7,0,0,0-5.86,2.61s-.07-.11-.11-.13c-2.68-1.78-5.45-3.38-7.37-6a24.65,24.65,0,0,1-4.07-11.15c-.5-3.82-.29-8.17,1.89-11.5,1.82-2.79,4.64-4.86,6.31-7.72.2-.36.14-1.38-.48-1.27a16.61,16.61,0,0,0-11,8.28.75.75,0,0,0-.06.13l-.17-.14a15.51,15.51,0,0,1-1.22-1.34,13.05,13.05,0,0,1-1.95-3.42,15.82,15.82,0,0,1-1-4.94,12.85,12.85,0,0,1,.41-4.37c.17-.52-.47-1.69-.85-.87a22.14,22.14,0,0,0-1.18,2.46,14.76,14.76,0,0,0-.53,2.37,13.39,13.39,0,0,0,.5,6c.88,2.85,3,5.09,3.61,8.08a9.74,9.74,0,0,1-1,6.38c-.5.93-1,1.82-1.56,2.74a16.84,16.84,0,0,1-2.18,3c-3.53,3.88-8.46,4.58-13.44,3.71A28.08,28.08,0,0,1,169,219.63a16.71,16.71,0,0,1-4.6-6.89c.12.32.21.5.21.5a13.82,13.82,0,0,0-3.24,1.43A18.07,18.07,0,0,0,166.87,223.24ZM215,168.38a57.68,57.68,0,0,1,7.51,13.06c1.83,4,4,8.34,7.8,10.92A14.93,14.93,0,0,0,228.6,197a18.8,18.8,0,0,0-.27,7.13,19.26,19.26,0,0,0,2.16,6.19,20.68,20.68,0,0,0,2.39,3.26,6.93,6.93,0,0,0,2.78,2.27c.47.15.47-.67.34-.91-.91-1.74-2.21-3.17-3-5a17.85,17.85,0,0,1-1.55-6,18.13,18.13,0,0,1,.52-5.87,18.35,18.35,0,0,1,1-2.78c.2-.44.41-.81.57-1.17a12.19,12.19,0,0,0,3.3.82c2.76.26,4.57-1,6.57-2.78.1-.09.12-.45-.07-.35-2.24,1.22-5.59.71-7.86-.28a13.47,13.47,0,0,1-5.31-5.12c-2.76-4.26-4.3-9.17-6.93-13.5a37.87,37.87,0,0,0-10-10.61c-.53-.39-1.07-.77-1.62-1.15a10.84,10.84,0,0,0-.92,2.58A41.12,41.12,0,0,1,215,168.38Zm-30.49,29.49c.27.67.88.27.75-.34a51.17,51.17,0,0,1-.55-6.45,35.39,35.39,0,0,1,.15-6.09c.12-1.06.29-2.1.5-3.14a12.25,12.25,0,0,0-2.71.42c-.08.52-.19,1-.25,1.56a32.42,32.42,0,0,0-.06,6.23A26.64,26.64,0,0,0,184.46,197.87ZM249.25,147c4,2,8.45,4.19,11,8,.28.41.53-.25.42-.5a15.21,15.21,0,0,0-4-5.71,33.64,33.64,0,0,0-7.07-5.14,40.67,40.67,0,0,0-4.87-2.15,14.54,14.54,0,0,0-1.3,3.05h0A35.62,35.62,0,0,1,249.25,147Zm59.05-14a38.44,38.44,0,0,1,2.53,4.46,17.3,17.3,0,0,1,1.07,2.42c.29.94.49,1.91.81,2.84.12.34.4.1.42-.16a9.59,9.59,0,0,0-.23-2.5c-.19-1-.31-2-.58-2.95a20.34,20.34,0,0,0-2.81-6,26.92,26.92,0,0,0-3.6-4.3c-.17-.16-.36-.3-.53-.46a6.82,6.82,0,0,0-1.24,1.85l-.1-.07c.37.32.75.62,1.1,1A24,24,0,0,1,308.3,133Zm-27.74,3.23a28.15,28.15,0,0,1,6.13,8.82c.12.28.32-.1.31-.24a16.85,16.85,0,0,0-5.54-11.2,23.21,23.21,0,0,0-4.18-3.12,7.36,7.36,0,0,0-1.49,2.24h0A24.16,24.16,0,0,1,280.56,136.27Zm-25.45,26a29.51,29.51,0,0,0-5.56,0c-.38,0-.36.83,0,.87a43.54,43.54,0,0,1,9.61,2.29,27.49,27.49,0,0,1,9.18,5.3,24.12,24.12,0,0,1,5.55,7.6,23.74,23.74,0,0,1,1.47,4.17,3.28,3.28,0,0,1,.11,2.14,2.42,2.42,0,0,1-1.82,1.3,26.3,26.3,0,0,0-3.48.94c-2.45.93-5.65,2.51-6.69,5.07-.06.14-.06.6.2.58a11.3,11.3,0,0,0,3.56-1.44,22.76,22.76,0,0,1,3.45-1.29,21.55,21.55,0,0,1,7.62-.76,19.47,19.47,0,0,1,6.36,1.61c1.18.53,2.27,1.19,3.45,1.71a30.07,30.07,0,0,1,3.77,1.76c.16.09.23-.24.18-.33a22.83,22.83,0,0,0-2.59-3.93,11.43,11.43,0,0,0-3.83-2.38c-1.39-.61-3.07-.8-4.38-1.51a4.15,4.15,0,0,1-1.77-2.88,28.06,28.06,0,0,0-1.54-4.81,24.28,24.28,0,0,0-4.26-6.47,26.64,26.64,0,0,0,7.69-1.06,56.81,56.81,0,0,0,5.76-1.89c.9,0,1.81-.18,2.72-.19a21,21,0,0,1,2.64.14,19,19,0,0,1,5.69,1.47,32.65,32.65,0,0,1,8.47,6s.07-.08.06-.11a13.18,13.18,0,0,0-3.66-5.35,21.69,21.69,0,0,0-5-3.18,22.15,22.15,0,0,0-5.24-1.7,16.48,16.48,0,0,0,3.65-3.31c.36-.46.62-1.23,1.07-1.56a3.37,3.37,0,0,1,1.86-.3,48.13,48.13,0,0,1,9.06.48,40,40,0,0,1,11.81,4.21,39.33,39.33,0,0,1,8.78,6.55c3,3,5.44,6.55,8.44,9.55.33.33.49-.4.44-.59a18.88,18.88,0,0,0-2.83-6.46c.84-.15,1.65-.42,2.48-.64a32.52,32.52,0,0,1,3.91-.76,28.67,28.67,0,0,1,7.11,0,24.47,24.47,0,0,1,10,3.6,34,34,0,0,1,4.6,3.88c.24.23.31-.31.26-.45a14.89,14.89,0,0,0-4.3-5.73,27.59,27.59,0,0,1,4.06-2.05,16.74,16.74,0,0,1,6-1,21.17,21.17,0,0,1,5.75,1c.9.27,1.79.6,2.66.94a6.25,6.25,0,0,0,1.43.56,3.78,3.78,0,0,1,1,.08c.2.06.21-.38.13-.47a10.09,10.09,0,0,0-2-2,17.92,17.92,0,0,0-3.14-1.69,19.29,19.29,0,0,0-7.08-1.44,18.39,18.39,0,0,0-6.36,1.1,14.9,14.9,0,0,0-3,1.4,7.08,7.08,0,0,0-2,1.85,21.73,21.73,0,0,0-6.06-2.47,26.6,26.6,0,0,0-9.41-.47,35.55,35.55,0,0,0-4.36.79,10.47,10.47,0,0,0-3.79,1.37,44.93,44.93,0,0,0-24.24-13.68,39.69,39.69,0,0,0-6.87-.76c-.72,0-2.45.31-2.81-.58a8.1,8.1,0,0,1-.13-2.42,12.94,12.94,0,0,0-.31-2.48,6.5,6.5,0,0,0-2.38-4c-.29-.2-.31.48-.25.61,1.27,2.59,1.65,5.12.36,7.79a15.8,15.8,0,0,1-5,6,30.38,30.38,0,0,1-7.62,3.76,35.07,35.07,0,0,1-8.94,2.22c-2.33.2-5.06,0-7-1.37a27.09,27.09,0,0,0-7.27-3.39A32.83,32.83,0,0,0,255.11,162.25ZM190.86,338.41a33.34,33.34,0,0,1-16.73,10,38.56,38.56,0,0,1-9.65.88l.17.05a16.56,16.56,0,0,0,.78,3.12,36.52,36.52,0,0,0,9.81-1.14c6.67-1.76,13-5.77,16-12.12C191.39,338.93,191.24,338,190.86,338.41Zm-20.27-65.24a18.9,18.9,0,0,1,5.24-5.91,18.26,18.26,0,0,1,7.06-3.09c3.13-.63,6.29-.1,9.46-.17.29,0,.32-.56.13-.71-3.62-2.84-8.69-3.11-13.29-1.88l.09-.6a36.46,36.46,0,0,0,.45-4.78A17.71,17.71,0,0,0,178.2,248a14,14,0,0,0-5.8-6.07c-1.69-1-4.35-2.31-6.3-1.33-.26.13-.3.78,0,.87,1,.28,2,.29,2.91.58a8.16,8.16,0,0,1,3.08,1.66c1.63,1.48,2.39,4.08,2.91,6.17a22.92,22.92,0,0,1,.47,6.91c-.07,1.2-.21,2.38-.38,3.57-.08.58-.18,1.17-.24,1.75a5.72,5.72,0,0,0,0,1,18,18,0,0,0-2.52,1.54,20.22,20.22,0,0,0-6,6.88,15.59,15.59,0,0,0-1.94,5.41,15.67,15.67,0,0,0-11.12,1.74c-.15.09-.18.61.06.59a36.15,36.15,0,0,1,6.9-.05A23.08,23.08,0,0,1,171,282.61c.89.59,1.73,1.25,2.63,1.85a23.61,23.61,0,0,0,2.66,1.82c.55.27.78-.47.72-.86a7.27,7.27,0,0,0-2.39-3.74,17.49,17.49,0,0,0-2.64-1.87,24.43,24.43,0,0,0-3.31-1.67c.15-.54.27-1.09.43-1.55A19.41,19.41,0,0,1,170.59,273.17ZM386.78,235c-3.1-2.67-7.82-4.67-12-3.77.56-5.61.12-11.55-3.06-15.92a18.07,18.07,0,0,0,7.34-2.93,11.47,11.47,0,0,0,3-3.28,14.41,14.41,0,0,0,2.8-.13c6.38-1.07,11.44-7.27,11.82-13.9a10.62,10.62,0,0,0-2.54-1.13,14.75,14.75,0,0,1-3,7.62,13.73,13.73,0,0,1-8.21,4.89,7.79,7.79,0,0,0-2.19-6.92c-.32-.31-.41.32-.3.5,3.1,5.06-3.63,9.21-8.73,10.66-5.28,1.49-11.23.94-16.35-.28-11.09-2.66-20-7.41-28.85-13.59-.62-.44-.73.68-.37,1,10.13,8.62,21.64,17.1,36.46,18a45,45,0,0,0,4.8,0c2.37,2.63,3.18,6.07,3.44,9.54a47.69,47.69,0,0,1-.53,11.51A24.72,24.72,0,0,1,366,247.73a15.15,15.15,0,0,1-3.89,3.81c-1.25.78-3.36,1.48-4.1,2.81,0,.08-.06.21,0,.27,1.17.79,2.94.14,4.26-.46-.32,4.26-2.56,8.19-5.51,11.32a31.73,31.73,0,0,1-5.62,4.65c-1.07.71-2.19,1.34-3.27,2a8.31,8.31,0,0,1-3.78,1.37c-.17,0-.25.36-.09.44,3.14,1.38,6.12.09,8.91-1.52A30.79,30.79,0,0,0,360,267a19.48,19.48,0,0,0,5.48-14.73,17,17,0,0,0,2.23-2,25,25,0,0,0,5.87-11.76c.2-.9.4-1.85.58-2.82a3.1,3.1,0,0,0,1.25-.11,11.61,11.61,0,0,1,8.72.49,24.24,24.24,0,0,1,4.14,2.5c1.42,1,2.91,2.15,3.19,4,.05.34.4.26.39-.06C391.78,239.47,388.94,236.9,386.78,235Zm13.51-15.19a17.65,17.65,0,0,0-4-2,8.91,8.91,0,0,0-2.09-.53c-.78-.06-1.53-.08-2.31-.17-.27,0-.3.56,0,.62a10.32,10.32,0,0,1,2.34.94c.63.32,1.29.57,1.92.88a25,25,0,0,1,3.9,2.44,21.53,21.53,0,0,1,1.85,1.59,9.77,9.77,0,0,0,1.41-1.47A20.29,20.29,0,0,0,400.29,219.84Zm-34.87,51.24c-1.44,4.14-2.66,8.24-5.19,11.91a28.74,28.74,0,0,1-9.12,8.54c-3.78,2.19-8.32,3.72-12.74,3.35A10.49,10.49,0,0,1,329.3,288a1.88,1.88,0,0,0-.43-.61,26.91,26.91,0,0,0,1.06-2.75,31,31,0,0,0,.19-17.23,1.49,1.49,0,0,0-.27-.55,36.6,36.6,0,0,0,2.8-4.84,44.12,44.12,0,0,0,4-13.52,17.21,17.21,0,0,0,7.9,1.91,13.67,13.67,0,0,0,4.3-.64,10.21,10.21,0,0,0,3.63-2.46c.27-.27.1-1.34-.41-1.19-4.91,1.47-10.69,2-15.17-.94,0-.58,0-1.17,0-1.75a26.78,26.78,0,0,0-1.23-7.54,8.33,8.33,0,0,0,2.16-.35,17.19,17.19,0,0,0,4.09-2,20.2,20.2,0,0,0,3.94-3.12,13.07,13.07,0,0,0,1.31-1.58,10,10,0,0,0,1.28-2.72,12,12,0,0,0,.79-4.8c0-.39-.66-1.33-.94-.54a11.72,11.72,0,0,1-1.7,3.59c-.51.66-1.15,1.21-1.72,1.82a14.79,14.79,0,0,1-1.66,1.51,25.52,25.52,0,0,1-4,2.52c-.67.35-1.35.69-2.05,1-.3.12-.6.25-.91.36l-.44.15-.21.06-.48.09-.19,0c-.26-.09-.68-.22-.75-.23s-.21,0-.31,0c-3.16-6.12-8.73-10.8-16.13-11.09a1.45,1.45,0,0,0-.29,0c-.11-.5-.23-1-.38-1.48-1.37-4.23-4.17-9.63-8.78-11-.22-.07-.25.44-.13.54a20,20,0,0,1,4.94,5.66,16.41,16.41,0,0,1,1.58,6.53,21,21,0,0,1-3.32,12.35,32.23,32.23,0,0,1-8.93,9.28,28.35,28.35,0,0,1-13.82,4.92,11.65,11.65,0,0,0-.42-1.12,17.64,17.64,0,0,0-7.39-7.52,16.86,16.86,0,0,0-4.93-1.83,10.16,10.16,0,0,0-5.27.42c-.62.19-.38,1.45.26,1.4,6.2-.46,12.12,2.85,14.08,8.86a14.88,14.88,0,0,1,.36,7.94,20.53,20.53,0,0,1-1.4,3.94,44,44,0,0,1-1.89,4.41c-.34.6.45,2.21,1.24,1.72a12.58,12.58,0,0,0,4.31-4.05,15.94,15.94,0,0,0,1.75-4.82,17.92,17.92,0,0,0,.1-6.41c5.41,1,11.12-1.77,15.48-4.72a30.85,30.85,0,0,0,10.76-11.86,21.75,21.75,0,0,0,2.24-9.25c10.27.8,14.64,11.31,14.64,20.5,0,.23,0,.46,0,.69-.27,10.41-3.61,21-11.32,28.34-.16.15-.15.87.17.7a14.43,14.43,0,0,0,3.22-1.81,25.09,25.09,0,0,0,3.09-3.18c.09-.1.16-.21.25-.31,1,9-2.24,19.28-9,25.29-7.58,6.72-18.09,7.34-27.22,3.66-.63-.26-.41,1-.15,1.25a16.62,16.62,0,0,0,7.45,3.75,15.16,15.16,0,0,1-1.52,1.11,17.71,17.71,0,0,1-6.79,2.44c-5.16.8-10.58-.63-15.11-3.08-.38-.21-.47.72-.2.9A28.39,28.39,0,0,0,288.59,310v.13a14.34,14.34,0,0,1-.17,2.36,15.39,15.39,0,0,1-.47,2.14c-.1.35-.22.7-.34,1-.25.67-.44,1.37-.7,2-.1.25.17,1.08.51.68a9.06,9.06,0,0,0,1.46-2.25,16.32,16.32,0,0,0,.86-2.43,15.3,15.3,0,0,0,.47-2.69c0-.3.05-.6.07-.91a18.44,18.44,0,0,0,2.57-.13,19,19,0,0,0,7.56-2.61,12.64,12.64,0,0,0,4.06-3.4,22.38,22.38,0,0,0,3.17-.18A27.54,27.54,0,0,0,319,299.61c.52,1.48,1.3,2.94,1.75,4.28a48.11,48.11,0,0,1,1.87,6.53c.94,5.06,1.16,10.59-1.18,15.31,0,.06,0,.2.07.1,2.56-4.56,4.82-9.18,4.66-14.53a28.23,28.23,0,0,0-1.57-8.19,19.26,19.26,0,0,0-2.74-5.7,27.44,27.44,0,0,0,4.55-5.32c2,3.59,6.21,6,10.18,6.65a24.25,24.25,0,0,0,15.73-3c8.32-4.66,15.22-14.63,13.87-24.44C366.08,270.86,365.61,270.51,365.42,271.08ZM378,265.4a42.91,42.91,0,0,0-5.85-10.2c-.37-.51-.69.4-.49.73,3.52,5.91,5.14,13.57,5.27,20.39a47.06,47.06,0,0,1-.91,9.38c.07-.29.1-.46.1-.46a14.81,14.81,0,0,0,4.14-1.46,37.34,37.34,0,0,0,.15-7.4A40.48,40.48,0,0,0,378,265.4Zm-227-7.22a17.39,17.39,0,0,0,5.08,5.7c.19.11.25-.29.19-.39-2.36-4.07-5-7.88-6.33-12.44a39.31,39.31,0,0,1-1-4.42,27.7,27.7,0,0,0-1.92,2,29.92,29.92,0,0,0,.89,3A31.15,31.15,0,0,0,151,258.18Zm52.42,99.44a30.47,30.47,0,0,1-7.23,4.65h0a16.36,16.36,0,0,0,1.59,1.63,14.21,14.21,0,0,0,5.22-5.14C203.71,357.57,203.73,357.31,203.39,357.62ZM308.29,319a9.48,9.48,0,0,1-1.49.86c-.46.32-.93.68-1.35,1-.87.76-1.62,1.63-2.51,2.37a24.67,24.67,0,0,1-5.56,3.38c-3.66,1.63-7.85,2.4-11.75,1.16a8.72,8.72,0,0,1-3.94-2.52c-1-1.1-1.67-2.39-2.6-3.52a20.77,20.77,0,0,0-5.79-4.93c-4.77-2.66-9.86-2.81-15-2a33.19,33.19,0,0,0,2.31-7.76c.9-5.42.76-11.79-1.38-17a23.86,23.86,0,0,0,5.38-6.8c2.38,3.28,6.95,5.28,10.53,6.08,5.5,1.23,11.87,1.24,17-1.18,5.59-2.62,9.84-8.54,12.42-14a26.82,26.82,0,0,0,2.06-6.13,2.75,2.75,0,0,0,.81,0,7.43,7.43,0,0,0,1.7-.64,12.91,12.91,0,0,0,3.05-2.12,27.07,27.07,0,0,0,4.64-5.81c2.79-4.5,4.47-9.93,2.86-15.15,0-.15-.18.05-.16.14,1.09,4.92-1.85,9.58-4.51,13.48a26.54,26.54,0,0,1-4.05,4.85,14.56,14.56,0,0,1-2.37,1.76,13.33,13.33,0,0,1-1.6.81,14.8,14.8,0,0,0-2-8.62c-.27-.45-.79-.22-.76.28a27.89,27.89,0,0,1-3.15,15.4c-2.24,4.12-5.36,8.48-9.34,11.07s-8.89,2.8-13.34,2.28c-4.85-.58-8.76-2.75-12.44-5.71a26.93,26.93,0,0,0,.63-16.17,23.57,23.57,0,0,0-4.53-8.69,16.47,16.47,0,0,0-3.84-3.5,35.67,35.67,0,0,0,2.7-5.07c2.33-5.44,4.27-14,1.27-19.75,4.77.33,10-1.51,14.09-3.74a26.31,26.31,0,0,0,4.53-3l.52-.11a11.64,11.64,0,0,1,3.05-.32,30,30,0,0,1,5.59.59,27.57,27.57,0,0,1,5.11,1.53c1.4.58,3,1.71,4.52,1.45,0,0,0-.06,0-.08-.81-1.76-2.61-2.76-4.27-3.61a30,30,0,0,0-6-2.29,26.87,26.87,0,0,0-5.5-.82h-.16a9.68,9.68,0,0,0,.65-1.76c1.13-4.6-.61-9.07-2.28-13.27-.41-1-1.71-.87-1.47.33.66,3.41,1.4,7.12.41,10.54s-3.8,5.38-6.78,7.06a29.36,29.36,0,0,1-9.4,3.75,18.55,18.55,0,0,1-11.37-1.68c-.33-.17-.38.54-.26.7a11.27,11.27,0,0,0,6,4.22c0,.64,0,1.29,0,1.92,0,1.66.05,3.32,0,5a32.35,32.35,0,0,1-1.56,8.61,35.9,35.9,0,0,1-9.07,14.41,50.77,50.77,0,0,1-13.93,9.53c-2.84,1.36-5.88,2.62-9.1,2.37a9,9,0,0,1-7.68-6.38.2.2,0,0,0-.39,0c-.87,2,.1,3.73.69,5.63s0,4.13-.77,5.81a8,8,0,0,1-3.93,4.13,11.61,11.61,0,0,1-4.5.75c-2.82.05-6.27-.46-8.06-2.9-.57-.77-1.11.23-.81.84a8.31,8.31,0,0,0,4.16,4c-.44,1.77-.74,3.57-1.22,5.34a43.61,43.61,0,0,1-2.55,7,34.4,34.4,0,0,1-7.34,10.55c-7.11,6.8-17.79,9.2-26.6,4.34-.39-.22-.41.68-.2.86a19.47,19.47,0,0,0,14.65,4.73,16,16,0,0,1-.93,1.48,16.33,16.33,0,0,1-4.37,4.16,26.67,26.67,0,0,1-10.39,4.17,26.4,26.4,0,0,1-21.07-6.08l.06.06c-.11.64-.15,1.23-.23,1.84,5.76,5.49,13.31,8.85,21.42,7.94A27.45,27.45,0,0,0,178,321.85a19.48,19.48,0,0,0,4.57-4.4,15,15,0,0,0,2.78-5.3,25,25,0,0,0,8.84-4.27,32.9,32.9,0,0,0,8-8.91,11,11,0,0,1-.7,1.26,22.31,22.31,0,0,0,1.91,3,20.13,20.13,0,0,0,2.86,3c-.93,6.09-3.45,12.16-8.11,16.32-4.94,4.41-11.86,6.52-18.29,4.51-1.14-.36-.86,1.73-.07,2.05a20.6,20.6,0,0,0,19.1-2.29A26.78,26.78,0,0,0,210,348a30.42,30.42,0,0,0,15.64,5.56,28.72,28.72,0,0,0,7.35-.32,17.74,17.74,0,0,0,3.79-1,22.52,22.52,0,0,0,2.87-1.88c.17-.11.29-.77,0-.72-1.16.18-2.48.08-3.66.22s-2.27.31-3.41.43a35,35,0,0,1-7.24,0,25.65,25.65,0,0,1-12.54-4.74,24.09,24.09,0,0,1-9.42-21.83,1.74,1.74,0,0,0-.1-.79,29.74,29.74,0,0,0,6.62-14.1c.71.41,1.42.79,2.17,1.13a34.92,34.92,0,0,0,11.42,2.8,37.25,37.25,0,0,0,6.51,0,17.72,17.72,0,0,0,5.63-1.45c.55-.23.45-1.54-.21-1.53-7.3.12-14.71.45-21.57-2.52a18,18,0,0,1-7-5.18,14.14,14.14,0,0,1-2.1-3.6,19.5,19.5,0,0,1-.72-2.8,46.71,46.71,0,0,0,2.81-7.79,42.5,42.5,0,0,0,1.1-4.85c.2-1.37.17-1.94,1.79-1.87a12.32,12.32,0,0,0,7.54-2.18,10.86,10.86,0,0,0,3.37-3.88c.2-.39,1.8-4.31,1.35-4.55a12.66,12.66,0,0,0,5.24,1.39c7.5.3,15.15-4.61,20.84-9.06a45.86,45.86,0,0,0,8.92-9.17c4.5,3.09,6.38,10.63,6.59,15.52A23.37,23.37,0,0,1,258,285.58c-7.6,8.57-20.35,9.19-30.1,4.23-.74-.38-.73,1-.35,1.31,7.77,6.74,19.8,6.48,28.38,1.4a37,37,0,0,1,1,10.8,30.41,30.41,0,0,1-4.34,13.42A26.09,26.09,0,0,1,220.66,327c-.4-.16-.45.69-.2.87,5.53,3.89,12.54,4.6,19,3,.12.67.27,1.32.4,1.89a22.1,22.1,0,0,0,1.6,4.38,20.66,20.66,0,0,0,6.41,7.6c4.9,3.6,13.08,6.15,18.5,2.23.17-.12.19-.67-.1-.68-3.07-.09-6.16.26-9.21-.35a17.44,17.44,0,0,1-7.71-3.44,18.27,18.27,0,0,1-4.9-6.45,17.77,17.77,0,0,1-1.25-3.75c-.17-.81-.19-1.69-.31-2.54a27,27,0,0,0,9.89-6.49,28.65,28.65,0,0,0,4-5.35c5.08-.22,10.71-.26,14.95,2.65,4,2.75,6.54,7.19,8.12,11.68a36.27,36.27,0,0,1,1.7,14.3,54.83,54.83,0,0,1-1.15,7.55c.29-.42.56-.84.78-1.24a16.4,16.4,0,0,0,2.27,1.34,31.25,31.25,0,0,0,1.27-21.77c.46.12.91.23,1.37.31a21,21,0,0,0,13.43-2,25.05,25.05,0,0,0,7.83-7.15,6.77,6.77,0,0,0,1-2.09,17.88,17.88,0,0,1,.37-1.91C308.79,319.36,308.62,318.65,308.29,319Z" style="fill:#47294C"></path><path d="M166.87,223.24a32.39,32.39,0,0,0,17.32,6.47c6,.51,11.88-1.4,15.77-6.19a15.92,15.92,0,0,0,2.23-3.8,25.7,25.7,0,0,0,5.15,10.88c1.95,2.33,5.14,5.28,8.45,5.55-2.61,2.62-4.47,6.46-3.46,10.06.17.59,1.37,1.58,1.86.75,1.1-1.85,1.64-3.93,2.87-5.72a15.38,15.38,0,0,1,3.34-3.63,14.2,14.2,0,0,1,4.76-2.34,12.81,12.81,0,0,1,2.38-.45c.42,0,.83-.11,1.24-.18a9.69,9.69,0,0,0,1.3-.38c.5-.17.43-1.06,0-1.29a7.4,7.4,0,0,0-3.64-1.06,15.14,15.14,0,0,0-3.29.28,14.7,14.7,0,0,0-5.86,2.61s-.07-.11-.11-.13c-2.68-1.78-5.45-3.38-7.37-6a24.65,24.65,0,0,1-4.07-11.15c-.5-3.82-.29-8.17,1.89-11.5,1.82-2.79,4.64-4.86,6.31-7.72.2-.36.14-1.38-.48-1.27a16.61,16.61,0,0,0-11,8.28.75.75,0,0,0-.06.13l-.17-.14a15.51,15.51,0,0,1-1.22-1.34,13.05,13.05,0,0,1-1.95-3.42,15.82,15.82,0,0,1-1-4.94,12.85,12.85,0,0,1,.41-4.37c.17-.52-.47-1.69-.85-.87a22.14,22.14,0,0,0-1.18,2.46,14.76,14.76,0,0,0-.53,2.37,13.39,13.39,0,0,0,.5,6c.88,2.85,3,5.09,3.61,8.08a9.74,9.74,0,0,1-1,6.38c-.5.93-1,1.82-1.56,2.74a16.84,16.84,0,0,1-2.18,3c-3.53,3.88-8.46,4.58-13.44,3.71A28.08,28.08,0,0,1,169,219.63a16.71,16.71,0,0,1-4.6-6.89c.12.32.21.5.21.5a13.82,13.82,0,0,0-3.24,1.43A18.07,18.07,0,0,0,166.87,223.24ZM249.25,147c4,2,8.45,4.19,11,8,.28.41.53-.25.42-.5a15.21,15.21,0,0,0-4-5.71,33.64,33.64,0,0,0-7.07-5.14,40.67,40.67,0,0,0-4.87-2.15,14.54,14.54,0,0,0-1.3,3.05h0A35.62,35.62,0,0,1,249.25,147Zm-64.79,50.86c.27.67.88.27.75-.34a51.17,51.17,0,0,1-.55-6.45,35.39,35.39,0,0,1,.15-6.09c.12-1.06.29-2.1.5-3.14a12.25,12.25,0,0,0-2.71.42c-.08.52-.19,1-.25,1.56a32.42,32.42,0,0,0-.06,6.23A26.64,26.64,0,0,0,184.46,197.87ZM215,168.38a57.68,57.68,0,0,1,7.51,13.06c1.83,4,4,8.34,7.8,10.92A14.93,14.93,0,0,0,228.6,197a18.8,18.8,0,0,0-.27,7.13,19.26,19.26,0,0,0,2.16,6.19,20.68,20.68,0,0,0,2.39,3.26,6.93,6.93,0,0,0,2.78,2.27c.47.15.47-.67.34-.91-.91-1.74-2.21-3.17-3-5a17.85,17.85,0,0,1-1.55-6,18.13,18.13,0,0,1,.52-5.87,18.35,18.35,0,0,1,1-2.78c.2-.44.41-.81.57-1.17a12.19,12.19,0,0,0,3.3.82c2.76.26,4.57-1,6.57-2.78.1-.09.12-.45-.07-.35-2.24,1.22-5.59.71-7.86-.28a13.47,13.47,0,0,1-5.31-5.12c-2.76-4.26-4.3-9.17-6.93-13.5a37.87,37.87,0,0,0-10-10.61c-.53-.39-1.07-.77-1.62-1.15a10.84,10.84,0,0,0-.92,2.58A41.12,41.12,0,0,1,215,168.38Zm40.16-6.13a29.51,29.51,0,0,0-5.56,0c-.38,0-.36.83,0,.87a43.54,43.54,0,0,1,9.61,2.29,27.49,27.49,0,0,1,9.18,5.3,24.12,24.12,0,0,1,5.55,7.6,23.74,23.74,0,0,1,1.47,4.17,3.28,3.28,0,0,1,.11,2.14,2.42,2.42,0,0,1-1.82,1.3,26.3,26.3,0,0,0-3.48.94c-2.45.93-5.65,2.51-6.69,5.07-.06.14-.06.6.2.58a11.3,11.3,0,0,0,3.56-1.44,22.76,22.76,0,0,1,3.45-1.29,21.55,21.55,0,0,1,7.62-.76,19.47,19.47,0,0,1,6.36,1.61c1.18.53,2.27,1.19,3.45,1.71a30.07,30.07,0,0,1,3.77,1.76c.16.09.23-.24.18-.33a22.83,22.83,0,0,0-2.59-3.93,11.43,11.43,0,0,0-3.83-2.38c-1.39-.61-3.07-.8-4.38-1.51a4.15,4.15,0,0,1-1.77-2.88,28.06,28.06,0,0,0-1.54-4.81,24.28,24.28,0,0,0-4.26-6.47,26.64,26.64,0,0,0,7.69-1.06,56.81,56.81,0,0,0,5.76-1.89c.9,0,1.81-.18,2.72-.19a21,21,0,0,1,2.64.14,19,19,0,0,1,5.69,1.47,32.65,32.65,0,0,1,8.47,6s.07-.08.06-.11a13.18,13.18,0,0,0-3.66-5.35,21.69,21.69,0,0,0-5-3.18,22.15,22.15,0,0,0-5.24-1.7,16.48,16.48,0,0,0,3.65-3.31c.36-.46.62-1.23,1.07-1.56a3.37,3.37,0,0,1,1.86-.3,48.13,48.13,0,0,1,9.06.48,40,40,0,0,1,11.81,4.21,39.33,39.33,0,0,1,8.78,6.55c3,3,5.44,6.55,8.44,9.55.33.33.49-.4.44-.59a18.88,18.88,0,0,0-2.83-6.46c.84-.15,1.65-.42,2.48-.64a32.52,32.52,0,0,1,3.91-.76,28.67,28.67,0,0,1,7.11,0,24.47,24.47,0,0,1,10,3.6,34,34,0,0,1,4.6,3.88c.24.23.31-.31.26-.45a14.89,14.89,0,0,0-4.3-5.73,27.59,27.59,0,0,1,4.06-2.05,16.74,16.74,0,0,1,6-1,21.17,21.17,0,0,1,5.75,1c.9.27,1.79.6,2.66.94a6.25,6.25,0,0,0,1.43.56,3.78,3.78,0,0,1,1,.08c.2.06.21-.38.13-.47a10.09,10.09,0,0,0-2-2,17.92,17.92,0,0,0-3.14-1.69,19.29,19.29,0,0,0-7.08-1.44,18.39,18.39,0,0,0-6.36,1.1,14.9,14.9,0,0,0-3,1.4,7.08,7.08,0,0,0-2,1.85,21.73,21.73,0,0,0-6.06-2.47,26.6,26.6,0,0,0-9.41-.47,35.55,35.55,0,0,0-4.36.79,10.47,10.47,0,0,0-3.79,1.37,44.93,44.93,0,0,0-24.24-13.68,39.69,39.69,0,0,0-6.87-.76c-.72,0-2.45.31-2.81-.58a8.1,8.1,0,0,1-.13-2.42,12.94,12.94,0,0,0-.31-2.48,6.5,6.5,0,0,0-2.38-4c-.29-.2-.31.48-.25.61,1.27,2.59,1.65,5.12.36,7.79a15.8,15.8,0,0,1-5,6,30.38,30.38,0,0,1-7.62,3.76,35.07,35.07,0,0,1-8.94,2.22c-2.33.2-5.06,0-7-1.37a27.09,27.09,0,0,0-7.27-3.39A32.83,32.83,0,0,0,255.11,162.25Zm86.7-10.09c.05.15.18.1.17,0a90.18,90.18,0,0,0-1.27-9c1.47,1.18,2.91,2.4,4.27,3.69a21.64,21.64,0,0,1,5,6.56c.29.65.85-.07.67-.55a26.25,26.25,0,0,0-1.84-4.08,33.27,33.27,0,0,0-2.8-4,37.64,37.64,0,0,0-2.86-3.06c-1-.94-2.16-2-3-2.81a3,3,0,0,0-.86-.55,43.23,43.23,0,0,0-4-8.25,16,16,0,0,0-3,.45h0l.63,1A100.79,100.79,0,0,1,341.81,152.16Zm-61.25-15.89a28.15,28.15,0,0,1,6.13,8.82c.12.28.32-.1.31-.24a16.85,16.85,0,0,0-5.54-11.2,23.21,23.21,0,0,0-4.18-3.12,7.36,7.36,0,0,0-1.49,2.24h0A24.16,24.16,0,0,1,280.56,136.27ZM308.3,133a38.44,38.44,0,0,1,2.53,4.46,17.3,17.3,0,0,1,1.07,2.42c.29.94.49,1.91.81,2.84.12.34.4.1.42-.16a9.59,9.59,0,0,0-.23-2.5c-.19-1-.31-2-.58-2.95a20.34,20.34,0,0,0-2.81-6,26.92,26.92,0,0,0-3.6-4.3c-.17-.16-.36-.3-.53-.46a6.82,6.82,0,0,0-1.24,1.85l-.1-.07c.37.32.75.62,1.1,1A24,24,0,0,1,308.3,133Zm57.12,138c-1.44,4.14-2.66,8.24-5.19,11.91a28.74,28.74,0,0,1-9.12,8.54c-3.78,2.19-8.32,3.72-12.74,3.35A10.49,10.49,0,0,1,329.3,288a1.88,1.88,0,0,0-.43-.61,26.91,26.91,0,0,0,1.06-2.75,31,31,0,0,0,.19-17.23,1.49,1.49,0,0,0-.27-.55,36.6,36.6,0,0,0,2.8-4.84,44.12,44.12,0,0,0,4-13.52,17.21,17.21,0,0,0,7.9,1.91,13.67,13.67,0,0,0,4.3-.64,10.21,10.21,0,0,0,3.63-2.46c.27-.27.1-1.34-.41-1.19-4.91,1.47-10.69,2-15.17-.94,0-.58,0-1.17,0-1.75a26.78,26.78,0,0,0-1.23-7.54,8.33,8.33,0,0,0,2.16-.35,17.19,17.19,0,0,0,4.09-2,20.2,20.2,0,0,0,3.94-3.12,13.07,13.07,0,0,0,1.31-1.58,10,10,0,0,0,1.28-2.72,12,12,0,0,0,.79-4.8c0-.39-.66-1.33-.94-.54a11.72,11.72,0,0,1-1.7,3.59c-.51.66-1.15,1.21-1.72,1.82a14.79,14.79,0,0,1-1.66,1.51,25.52,25.52,0,0,1-4,2.52c-.67.35-1.35.69-2.05,1-.3.12-.6.25-.91.36l-.44.15-.21.06-.48.09-.19,0c-.26-.09-.68-.22-.75-.23s-.21,0-.31,0c-3.16-6.12-8.73-10.8-16.13-11.09a1.45,1.45,0,0,0-.29,0c-.11-.5-.23-1-.38-1.48-1.37-4.23-4.17-9.63-8.78-11-.22-.07-.25.44-.13.54a20,20,0,0,1,4.94,5.66,16.41,16.41,0,0,1,1.58,6.53,21,21,0,0,1-3.32,12.35,32.23,32.23,0,0,1-8.93,9.28,28.35,28.35,0,0,1-13.82,4.92,11.65,11.65,0,0,0-.42-1.12,17.64,17.64,0,0,0-7.39-7.52,16.86,16.86,0,0,0-4.93-1.83,10.16,10.16,0,0,0-5.27.42c-.62.19-.38,1.45.26,1.4,6.2-.46,12.12,2.85,14.08,8.86a14.88,14.88,0,0,1,.36,7.94,20.53,20.53,0,0,1-1.4,3.94,44,44,0,0,1-1.89,4.41c-.34.6.45,2.21,1.24,1.72a12.58,12.58,0,0,0,4.31-4.05,15.94,15.94,0,0,0,1.75-4.82,17.92,17.92,0,0,0,.1-6.41c5.41,1,11.12-1.77,15.48-4.72a30.85,30.85,0,0,0,10.76-11.86,21.75,21.75,0,0,0,2.24-9.25c10.27.8,14.64,11.31,14.64,20.5,0,.23,0,.46,0,.69-.27,10.41-3.61,21-11.32,28.34-.16.15-.15.87.17.7a14.43,14.43,0,0,0,3.22-1.81,25.09,25.09,0,0,0,3.09-3.18c.09-.1.16-.21.25-.31,1,9-2.24,19.28-9,25.29-7.58,6.72-18.09,7.34-27.22,3.66-.63-.26-.41,1-.15,1.25a16.62,16.62,0,0,0,7.45,3.75,15.16,15.16,0,0,1-1.52,1.11,17.71,17.71,0,0,1-6.79,2.44c-5.16.8-10.58-.63-15.11-3.08-.38-.21-.47.72-.2.9A28.39,28.39,0,0,0,288.59,310v.13a14.34,14.34,0,0,1-.17,2.36,15.39,15.39,0,0,1-.47,2.14c-.1.35-.22.7-.34,1-.25.67-.44,1.37-.7,2-.1.25.17,1.08.51.68a9.06,9.06,0,0,0,1.46-2.25,16.32,16.32,0,0,0,.86-2.43,15.3,15.3,0,0,0,.47-2.69c0-.3.05-.6.07-.91a18.44,18.44,0,0,0,2.57-.13,19,19,0,0,0,7.56-2.61,12.64,12.64,0,0,0,4.06-3.4,22.38,22.38,0,0,0,3.17-.18A27.54,27.54,0,0,0,319,299.61c.52,1.48,1.3,2.94,1.75,4.28a48.11,48.11,0,0,1,1.87,6.53c.94,5.06,1.16,10.59-1.18,15.31,0,.06,0,.2.07.1,2.56-4.56,4.82-9.18,4.66-14.53a28.23,28.23,0,0,0-1.57-8.19,19.26,19.26,0,0,0-2.74-5.7,27.44,27.44,0,0,0,4.55-5.32c2,3.59,6.21,6,10.18,6.65a24.25,24.25,0,0,0,15.73-3c8.32-4.66,15.22-14.63,13.87-24.44C366.08,270.86,365.61,270.51,365.42,271.08Zm-194.83,2.09a18.9,18.9,0,0,1,5.24-5.91,18.26,18.26,0,0,1,7.06-3.09c3.13-.63,6.29-.1,9.46-.17.29,0,.32-.56.13-.71-3.62-2.84-8.69-3.11-13.29-1.88l.09-.6a36.46,36.46,0,0,0,.45-4.78A17.71,17.71,0,0,0,178.2,248a14,14,0,0,0-5.8-6.07c-1.69-1-4.35-2.31-6.3-1.33-.26.13-.3.78,0,.87,1,.28,2,.29,2.91.58a8.16,8.16,0,0,1,3.08,1.66c1.63,1.48,2.39,4.08,2.91,6.17a22.92,22.92,0,0,1,.47,6.91c-.07,1.2-.21,2.38-.38,3.57-.08.58-.18,1.17-.24,1.75a5.72,5.72,0,0,0,0,1,18,18,0,0,0-2.52,1.54,20.22,20.22,0,0,0-6,6.88,15.59,15.59,0,0,0-1.94,5.41,15.67,15.67,0,0,0-11.12,1.74c-.15.09-.18.61.06.59a36.15,36.15,0,0,1,6.9-.05A23.08,23.08,0,0,1,171,282.61c.89.59,1.73,1.25,2.63,1.85a23.61,23.61,0,0,0,2.66,1.82c.55.27.78-.47.72-.86a7.27,7.27,0,0,0-2.39-3.74,17.49,17.49,0,0,0-2.64-1.87,24.43,24.43,0,0,0-3.31-1.67c.15-.54.27-1.09.43-1.55A19.41,19.41,0,0,1,170.59,273.17ZM378,265.4a42.91,42.91,0,0,0-5.85-10.2c-.37-.51-.69.4-.49.73,3.52,5.91,5.14,13.57,5.27,20.39a47.06,47.06,0,0,1-.91,9.38c.07-.29.1-.46.1-.46a14.81,14.81,0,0,0,4.14-1.46,37.34,37.34,0,0,0,.15-7.4A40.48,40.48,0,0,0,378,265.4Zm22.27-45.56a17.65,17.65,0,0,0-4-2,8.91,8.91,0,0,0-2.09-.53c-.78-.06-1.53-.08-2.31-.17-.27,0-.3.56,0,.62a10.32,10.32,0,0,1,2.34.94c.63.32,1.29.57,1.92.88a25,25,0,0,1,3.9,2.44,21.53,21.53,0,0,1,1.85,1.59,9.77,9.77,0,0,0,1.41-1.47A20.29,20.29,0,0,0,400.29,219.84Zm-92,99.12a9.48,9.48,0,0,1-1.49.86c-.46.32-.93.68-1.35,1-.87.76-1.62,1.63-2.51,2.37a24.67,24.67,0,0,1-5.56,3.38c-3.66,1.63-7.85,2.4-11.75,1.16a8.72,8.72,0,0,1-3.94-2.52c-1-1.1-1.67-2.39-2.6-3.52a20.77,20.77,0,0,0-5.79-4.93c-4.77-2.66-9.86-2.81-15-2a33.19,33.19,0,0,0,2.31-7.76c.9-5.42.76-11.79-1.38-17a23.86,23.86,0,0,0,5.38-6.8c2.38,3.28,6.95,5.28,10.53,6.08,5.5,1.23,11.87,1.24,17-1.18,5.59-2.62,9.84-8.54,12.42-14a26.82,26.82,0,0,0,2.06-6.13,2.75,2.75,0,0,0,.81,0,7.43,7.43,0,0,0,1.7-.64,12.91,12.91,0,0,0,3.05-2.12,27.07,27.07,0,0,0,4.64-5.81c2.79-4.5,4.47-9.93,2.86-15.15,0-.15-.18.05-.16.14,1.09,4.92-1.85,9.58-4.51,13.48a26.54,26.54,0,0,1-4.05,4.85,14.56,14.56,0,0,1-2.37,1.76,13.33,13.33,0,0,1-1.6.81,14.8,14.8,0,0,0-2-8.62c-.27-.45-.79-.22-.76.28a27.89,27.89,0,0,1-3.15,15.4c-2.24,4.12-5.36,8.48-9.34,11.07s-8.89,2.8-13.34,2.28c-4.85-.58-8.76-2.75-12.44-5.71a26.93,26.93,0,0,0,.63-16.17,23.57,23.57,0,0,0-4.53-8.69,16.47,16.47,0,0,0-3.84-3.5,35.67,35.67,0,0,0,2.7-5.07c2.33-5.44,4.27-14,1.27-19.75,4.77.33,10-1.51,14.09-3.74a26.31,26.31,0,0,0,4.53-3l.52-.11a11.64,11.64,0,0,1,3.05-.32,30,30,0,0,1,5.59.59,27.57,27.57,0,0,1,5.11,1.53c1.4.58,3,1.71,4.52,1.45,0,0,0-.06,0-.08-.81-1.76-2.61-2.76-4.27-3.61a30,30,0,0,0-6-2.29,26.87,26.87,0,0,0-5.5-.82h-.16a9.68,9.68,0,0,0,.65-1.76c1.13-4.6-.61-9.07-2.28-13.27-.41-1-1.71-.87-1.47.33.66,3.41,1.4,7.12.41,10.54s-3.8,5.38-6.78,7.06a29.36,29.36,0,0,1-9.4,3.75,18.55,18.55,0,0,1-11.37-1.68c-.33-.17-.38.54-.26.7a11.27,11.27,0,0,0,6,4.22c0,.64,0,1.29,0,1.92,0,1.66.05,3.32,0,5a32.35,32.35,0,0,1-1.56,8.61,35.9,35.9,0,0,1-9.07,14.41,50.77,50.77,0,0,1-13.93,9.53c-2.84,1.36-5.88,2.62-9.1,2.37a9,9,0,0,1-7.68-6.38.2.2,0,0,0-.39,0c-.87,2,.1,3.73.69,5.63s0,4.13-.77,5.81a8,8,0,0,1-3.93,4.13,11.61,11.61,0,0,1-4.5.75c-2.82.05-6.27-.46-8.06-2.9-.57-.77-1.11.23-.81.84a8.31,8.31,0,0,0,4.16,4c-.44,1.77-.74,3.57-1.22,5.34a43.61,43.61,0,0,1-2.55,7,34.4,34.4,0,0,1-7.34,10.55c-7.11,6.8-17.79,9.2-26.6,4.34-.39-.22-.41.68-.2.86a19.47,19.47,0,0,0,14.65,4.73,16,16,0,0,1-.93,1.48,16.33,16.33,0,0,1-4.37,4.16,26.67,26.67,0,0,1-10.39,4.17,26.4,26.4,0,0,1-21.07-6.08l.06.06c-.11.64-.15,1.23-.23,1.84,5.76,5.49,13.31,8.85,21.42,7.94A27.45,27.45,0,0,0,178,321.85a19.48,19.48,0,0,0,4.57-4.4,15,15,0,0,0,2.78-5.3,25,25,0,0,0,8.84-4.27,32.9,32.9,0,0,0,8-8.91,11,11,0,0,1-.7,1.26,22.31,22.31,0,0,0,1.91,3,20.13,20.13,0,0,0,2.86,3c-.93,6.09-3.45,12.16-8.11,16.32-4.94,4.41-11.86,6.52-18.29,4.51-1.14-.36-.86,1.73-.07,2.05a20.6,20.6,0,0,0,19.1-2.29A26.78,26.78,0,0,0,210,348a30.42,30.42,0,0,0,15.64,5.56,28.72,28.72,0,0,0,7.35-.32,17.74,17.74,0,0,0,3.79-1,22.52,22.52,0,0,0,2.87-1.88c.17-.11.29-.77,0-.72-1.16.18-2.48.08-3.66.22s-2.27.31-3.41.43a35,35,0,0,1-7.24,0,25.65,25.65,0,0,1-12.54-4.74,24.09,24.09,0,0,1-9.42-21.83,1.74,1.74,0,0,0-.1-.79,29.74,29.74,0,0,0,6.62-14.1c.71.41,1.42.79,2.17,1.13a34.92,34.92,0,0,0,11.42,2.8,37.25,37.25,0,0,0,6.51,0,17.72,17.72,0,0,0,5.63-1.45c.55-.23.45-1.54-.21-1.53-7.3.12-14.71.45-21.57-2.52a18,18,0,0,1-7-5.18,14.14,14.14,0,0,1-2.1-3.6,19.5,19.5,0,0,1-.72-2.8,46.71,46.71,0,0,0,2.81-7.79,42.5,42.5,0,0,0,1.1-4.85c.2-1.37.17-1.94,1.79-1.87a12.32,12.32,0,0,0,7.54-2.18,10.86,10.86,0,0,0,3.37-3.88c.2-.39,1.8-4.31,1.35-4.55a12.66,12.66,0,0,0,5.24,1.39c7.5.3,15.15-4.61,20.84-9.06a45.86,45.86,0,0,0,8.92-9.17c4.5,3.09,6.38,10.63,6.59,15.52A23.37,23.37,0,0,1,258,285.58c-7.6,8.57-20.35,9.19-30.1,4.23-.74-.38-.73,1-.35,1.31,7.77,6.74,19.8,6.48,28.38,1.4a37,37,0,0,1,1,10.8,30.41,30.41,0,0,1-4.34,13.42A26.09,26.09,0,0,1,220.66,327c-.4-.16-.45.69-.2.87,5.53,3.89,12.54,4.6,19,3,.12.67.27,1.32.4,1.89a22.1,22.1,0,0,0,1.6,4.38,20.66,20.66,0,0,0,6.41,7.6c4.9,3.6,13.08,6.15,18.5,2.23.17-.12.19-.67-.1-.68-3.07-.09-6.16.26-9.21-.35a17.44,17.44,0,0,1-7.71-3.44,18.27,18.27,0,0,1-4.9-6.45,17.77,17.77,0,0,1-1.25-3.75c-.17-.81-.19-1.69-.31-2.54a27,27,0,0,0,9.89-6.49,28.65,28.65,0,0,0,4-5.35c5.08-.22,10.71-.26,14.95,2.65,4,2.75,6.54,7.19,8.12,11.68a36.27,36.27,0,0,1,1.7,14.3,54.83,54.83,0,0,1-1.15,7.55c.29-.42.56-.84.78-1.24a16.4,16.4,0,0,0,2.27,1.34,31.25,31.25,0,0,0,1.27-21.77c.46.12.91.23,1.37.31a21,21,0,0,0,13.43-2,25.05,25.05,0,0,0,7.83-7.15,6.77,6.77,0,0,0,1-2.09,17.88,17.88,0,0,1,.37-1.91C308.79,319.36,308.62,318.65,308.29,319ZM386.78,235c-3.1-2.67-7.82-4.67-12-3.77.56-5.61.12-11.55-3.06-15.92a18.07,18.07,0,0,0,7.34-2.93,11.47,11.47,0,0,0,3-3.28,14.41,14.41,0,0,0,2.8-.13c6.38-1.07,11.44-7.27,11.82-13.9a10.62,10.62,0,0,0-2.54-1.13,14.75,14.75,0,0,1-3,7.62,13.73,13.73,0,0,1-8.21,4.89,7.79,7.79,0,0,0-2.19-6.92c-.32-.31-.41.32-.3.5,3.1,5.06-3.63,9.21-8.73,10.66-5.28,1.49-11.23.94-16.35-.28-11.09-2.66-20-7.41-28.85-13.59-.62-.44-.73.68-.37,1,10.13,8.62,21.64,17.1,36.46,18a45,45,0,0,0,4.8,0c2.37,2.63,3.18,6.07,3.44,9.54a47.69,47.69,0,0,1-.53,11.51A24.72,24.72,0,0,1,366,247.73a15.15,15.15,0,0,1-3.89,3.81c-1.25.78-3.36,1.48-4.1,2.81,0,.08-.06.21,0,.27,1.17.79,2.94.14,4.26-.46-.32,4.26-2.56,8.19-5.51,11.32a31.73,31.73,0,0,1-5.62,4.65c-1.07.71-2.19,1.34-3.27,2a8.31,8.31,0,0,1-3.78,1.37c-.17,0-.25.36-.09.44,3.14,1.38,6.12.09,8.91-1.52A30.79,30.79,0,0,0,360,267a19.48,19.48,0,0,0,5.48-14.73,17,17,0,0,0,2.23-2,25,25,0,0,0,5.87-11.76c.2-.9.4-1.85.58-2.82a3.1,3.1,0,0,0,1.25-.11,11.61,11.61,0,0,1,8.72.49,24.24,24.24,0,0,1,4.14,2.5c1.42,1,2.91,2.15,3.19,4,.05.34.4.26.39-.06C391.78,239.47,388.94,236.9,386.78,235ZM203.39,357.62a30.47,30.47,0,0,1-7.23,4.65h0a16.36,16.36,0,0,0,1.59,1.63,14.21,14.21,0,0,0,5.22-5.14C203.71,357.57,203.73,357.31,203.39,357.62ZM151,258.18a17.39,17.39,0,0,0,5.08,5.7c.19.11.25-.29.19-.39-2.36-4.07-5-7.88-6.33-12.44a39.31,39.31,0,0,1-1-4.42,27.7,27.7,0,0,0-1.92,2,29.92,29.92,0,0,0,.89,3A31.15,31.15,0,0,0,151,258.18Zm39.89,80.23a33.34,33.34,0,0,1-16.73,10,38.56,38.56,0,0,1-9.65.88l.17.05a16.56,16.56,0,0,0,.78,3.12,36.52,36.52,0,0,0,9.81-1.14c6.67-1.76,13-5.77,16-12.12C191.39,338.93,191.24,338,190.86,338.41Z" style="fill:#fff;opacity:0.2"></path></g></g></svg>
